<?xml version="1.0" encoding="utf-8"?>
<!-- Generator: Adobe Illustrator 22.1.0, SVG Export Plug-In . SVG Version: 6.00 Build 0)  -->
<svg version="1.1" xmlns="http://www.w3.org/2000/svg" xmlns:xlink="http://www.w3.org/1999/xlink" x="0px" y="0px"
	 viewBox="0 0 1280 717" style="enable-background:new 0 0 1280 717;" xml:space="preserve">
<style type="text/css">
	.st0{clip-path:url(#SVGID_2_);}
	.st1{fill:#EAC926;}
	.st2{fill:#B26AC4;}
	.st3{clip-path:url(#SVGID_2_);fill:#996A0D;}
	.st4{clip-path:url(#SVGID_2_);fill:#B26AC4;stroke:#B26AC4;stroke-miterlimit:10;}
	.st5{clip-path:url(#SVGID_2_);fill:#938585;stroke:#FFFFFF;stroke-width:0.5;stroke-miterlimit:10;}
	.st6{clip-path:url(#SVGID_2_);fill:#EFE4E4;stroke:#6D6A6A;stroke-miterlimit:10;}
	.st7{clip-path:url(#SVGID_2_);fill:#7F7D7D;stroke:#6D6A6A;stroke-miterlimit:10;}
	.st8{clip-path:url(#SVGID_2_);fill:url(#SVGID_3_);stroke:#6D6A6A;stroke-miterlimit:10;}
	.st9{clip-path:url(#SVGID_2_);fill:url(#SVGID_4_);stroke:#6D6A6A;stroke-miterlimit:10;}
	.st10{clip-path:url(#SVGID_2_);fill:url(#SVGID_5_);stroke:#FFFFFF;stroke-width:0.5;stroke-miterlimit:10;}
	.st11{clip-path:url(#SVGID_2_);fill:url(#SVGID_6_);stroke:#FFFFFF;stroke-width:0.5;stroke-miterlimit:10;}
	.st12{clip-path:url(#SVGID_2_);fill:#F2D7D7;stroke:#FFFFFF;stroke-width:0.5;stroke-miterlimit:10;}
	.st13{fill:#EF3618;stroke:#EF3618;stroke-width:3;stroke-miterlimit:10;}
	.st14{fill:#F4D437;stroke:#F4D437;stroke-width:4;stroke-miterlimit:10;}
	.st15{fill:#F4690B;stroke:#F4690B;stroke-width:4;stroke-miterlimit:10;}
	.st16{fill:#0741D3;stroke:#0741D3;stroke-width:4;stroke-miterlimit:10;}
	.st17{clip-path:url(#SVGID_2_);fill:#697EB7;stroke:#697EB7;stroke-miterlimit:10;}
	.st18{clip-path:url(#SVGID_2_);fill:#C67F60;stroke:#C67F60;stroke-miterlimit:10;}
	.st19{clip-path:url(#SVGID_2_);fill:#443F3F;stroke:#6D6A6A;stroke-miterlimit:10;}
	.st20{clip-path:url(#SVGID_2_);fill:#13A59A;}
	.st21{clip-path:url(#SVGID_2_);fill:#CED8D7;}
	.st22{clip-path:url(#SVGID_2_);fill:#1DBCA9;stroke:#13A59A;stroke-miterlimit:10;}
	.st23{clip-path:url(#SVGID_2_);fill:#2BCCB5;stroke:#13A59A;stroke-width:2;stroke-miterlimit:10;}
	.st24{clip-path:url(#SVGID_2_);fill:url(#SVGID_7_);stroke:#938585;stroke-miterlimit:10;}
	.st25{clip-path:url(#SVGID_2_);fill:url(#SVGID_8_);stroke:#938585;stroke-miterlimit:10;}
	.st26{clip-path:url(#SVGID_2_);fill:url(#SVGID_9_);stroke:#938585;stroke-miterlimit:10;}
	.st27{clip-path:url(#SVGID_2_);fill:url(#SVGID_10_);stroke:#938585;stroke-miterlimit:10;}
	.st28{clip-path:url(#SVGID_2_);fill:url(#SVGID_11_);stroke:#938585;stroke-miterlimit:10;}
	.st29{clip-path:url(#SVGID_2_);fill:url(#SVGID_12_);stroke:#938585;stroke-miterlimit:10;}
	.st30{clip-path:url(#SVGID_2_);fill:url(#SVGID_13_);stroke:#938585;stroke-miterlimit:10;}
	.st31{clip-path:url(#SVGID_2_);fill:#F76C1E;stroke:#F76C1E;stroke-miterlimit:10;}
	.st32{clip-path:url(#SVGID_2_);fill:#663962;stroke:#663962;stroke-miterlimit:10;}
	.st33{clip-path:url(#SVGID_2_);fill:#494749;stroke:#494749;stroke-miterlimit:10;}
	.st34{clip-path:url(#SVGID_2_);fill:#E2CCDE;stroke:#E2CCDE;stroke-miterlimit:10;}
	.st35{clip-path:url(#SVGID_2_);fill:#C13821;stroke:#C13821;stroke-miterlimit:10;}
	.st36{clip-path:url(#SVGID_2_);fill:#78B5AF;stroke:#78B5AF;stroke-miterlimit:10;}
	.st37{clip-path:url(#SVGID_2_);fill:#847676;}
	.st38{clip-path:url(#SVGID_2_);fill:#938585;stroke:#938585;stroke-miterlimit:10;}
	.st39{clip-path:url(#SVGID_2_);fill:#1E1D1D;stroke:#1E1D1D;stroke-miterlimit:10;}
	.st40{clip-path:url(#SVGID_2_);fill:#938585;stroke:#6D6A6A;stroke-miterlimit:10;}
	.st41{clip-path:url(#SVGID_2_);fill:#333232;}
	.st42{clip-path:url(#SVGID_2_);fill:#938585;stroke:#FFFFFF;stroke-width:0.75;stroke-miterlimit:10;}
	.st43{clip-path:url(#SVGID_2_);fill:#1E1C1C;stroke:#51504F;stroke-width:0.5;stroke-miterlimit:10;}
	.st44{fill:#333030;stroke:#51504F;stroke-width:0.5;stroke-miterlimit:10;}
	.st45{fill:#996A0D;}
	.st46{fill:#CC1B1B;}
	.st47{fill:#E56A2C;}
	.st48{fill:#181C1B;stroke:#434444;stroke-width:0.5;stroke-miterlimit:10;}
	.st49{fill:#070707;stroke:#434444;stroke-miterlimit:10;}
	.st50{fill:#181C1B;stroke:#434444;stroke-miterlimit:10;}
	.st51{fill:url(#SVGID_14_);}
	.st52{opacity:0.28;fill:#F4EDE9;stroke:#F4EDE9;stroke-width:0.75;stroke-miterlimit:10;}
	.st53{fill:url(#SVGID_15_);}
	.st54{fill:none;stroke:#F4EDE9;stroke-width:0.5;stroke-miterlimit:10;}
	.st55{clip-path:url(#SVGID_2_);fill:#B5BCB3;stroke:#51504F;stroke-width:0.5;stroke-miterlimit:10;}
	.st56{fill:#53F95B;}
	.st57{font-family:'Digital-7';}
	.st58{font-size:14px;}
	.st59{clip-path:url(#SVGID_2_);fill:#1ED3CA;}
	.st60{fill:#3BD9D1;}
	.st61{clip-path:url(#SVGID_2_);fill:url(#SVGID_16_);stroke:#938585;stroke-miterlimit:10;}
	.st62{clip-path:url(#SVGID_2_);fill:url(#SVGID_17_);stroke:#938585;stroke-miterlimit:10;}
	.st63{clip-path:url(#SVGID_2_);fill:url(#SVGID_18_);stroke:#938585;stroke-miterlimit:10;}
	.st64{clip-path:url(#SVGID_2_);fill:url(#SVGID_19_);stroke:#938585;stroke-miterlimit:10;}
	.st65{clip-path:url(#SVGID_2_);fill:none;}
</style>
<g id="Layer_1">
</g>
<g id="fridge">
</g>
<g id="cabinets">
</g>
<g id="books">
</g>
<g id="oven">
	<g id="Layer_6">
	</g>
</g>
<g id="clipping_mask">
	<g>
		<defs>
			<rect id="SVGID_1_" x="-117" y="1" width="1440" height="725"/>
		</defs>
		<clipPath id="SVGID_2_">
			<use xlink:href="#SVGID_1_"  style="overflow:visible;"/>
		</clipPath>
		<g class="st0">
			<rect x="0.5" y="-106.5" class="st1" width="1279" height="824"/>
			<path class="st2" d="M1279-106v823H1v-823H1279 M1280-107H0v825h1280V-107L1280-107z"/>
		</g>
		<path class="st3" d="M400.9,373.1c0,0,29.5-90.2,34.4-93.4c0,0,2.2,0,2.7,1.3l-29.5,92.4C408.5,373.5,406.8,377.1,400.9,373.1z"/>
		<path class="st3" d="M400.2,374.5c0,0,17.1-93.3,21.5-97.2c0,0,2.2-0.3,2.8,0.9l-16.8,95.6C407.8,373.8,406.6,377.6,400.2,374.5z"
			/>
		<path class="st3" d="M402.4,375.1c0,0-29.5-90.2-34.4-93.4c0,0-2.2,0-2.7,1.3l29.5,92.4C394.8,375.5,396.5,379.1,402.4,375.1z"/>
		<path class="st3" d="M403,376.5c0,0-17.1-93.3-21.5-97.2c0,0-2.2-0.3-2.8,0.9l16.8,95.6C395.5,375.8,396.7,379.6,403,376.5z"/>
		<path class="st3" d="M405.3,374.2c0,0,0.3-94.9-3.3-99.4c0,0-2.1-0.7-3,0.4l-1.1,97C397.9,372.2,398.5,376.1,405.3,374.2z"/>
		<polygon class="st4" points="376.5,331.5 424.5,331.5 416,380.8 387,380.8 		"/>
		<path class="st5" d="M1227.3,529.5H963.8c-3.4,0-6.3-2.8-6.3-6.3v-1.5c0-3.4,2.8-6.3,6.3-6.3h263.5c3.4,0,6.3,2.8,6.3,6.3v1.5
			C1233.5,526.7,1230.7,529.5,1227.3,529.5z"/>
		<path class="st6" d="M884,717.5v-654c0-6.6,5.5-12,12.1-12h371.2c6.7,0,12.1,5.4,12.1,12v654"/>
		<rect x="884.5" y="444.5" class="st7" width="395" height="17"/>
		<linearGradient id="SVGID_3_" gradientUnits="userSpaceOnUse" x1="981" y1="540" x2="1183" y2="338">
			<stop  offset="0" style="stop-color:#999999"/>
			<stop  offset="8.728403e-02" style="stop-color:#8A8A8A"/>
			<stop  offset="0.5272" style="stop-color:#404040"/>
			<stop  offset="0.8424" style="stop-color:#121212"/>
			<stop  offset="1" style="stop-color:#000000"/>
		</linearGradient>
		<rect x="884.5" y="434.5" class="st8" width="395" height="9"/>
		<linearGradient id="SVGID_4_" gradientUnits="userSpaceOnUse" x1="981" y1="568" x2="1183" y2="366">
			<stop  offset="0" style="stop-color:#999999"/>
			<stop  offset="8.728403e-02" style="stop-color:#8A8A8A"/>
			<stop  offset="0.5272" style="stop-color:#404040"/>
			<stop  offset="0.8424" style="stop-color:#121212"/>
			<stop  offset="1" style="stop-color:#000000"/>
		</linearGradient>
		<rect x="884.5" y="462.5" class="st9" width="395" height="9"/>
		<linearGradient id="SVGID_5_" gradientUnits="userSpaceOnUse" x1="993.7109" y1="603.2891" x2="1171.2891" y2="425.7109">
			<stop  offset="0" style="stop-color:#999999"/>
			<stop  offset="8.728403e-02" style="stop-color:#8A8A8A"/>
			<stop  offset="0.5272" style="stop-color:#404040"/>
			<stop  offset="0.8424" style="stop-color:#121212"/>
			<stop  offset="1" style="stop-color:#000000"/>
		</linearGradient>
		<path class="st10" d="M1248.8,523.3H916.3c-3.4,0-6.3-2.8-6.3-6.3v-5c0-3.4,2.8-6.3,6.3-6.3h332.5c3.4,0,6.3,2.8,6.3,6.3v5
			C1255,520.4,1252.2,523.3,1248.8,523.3z"/>
		<linearGradient id="SVGID_6_" gradientUnits="userSpaceOnUse" x1="838.7109" y1="332.2891" x2="1016.2891" y2="154.7109">
			<stop  offset="0" style="stop-color:#999999"/>
			<stop  offset="8.728403e-02" style="stop-color:#8A8A8A"/>
			<stop  offset="0.5272" style="stop-color:#404040"/>
			<stop  offset="0.8424" style="stop-color:#121212"/>
			<stop  offset="1" style="stop-color:#000000"/>
		</linearGradient>
		<path class="st11" d="M936.3,77.3v332.5c0,3.4-2.8,6.3-6.3,6.3h-5c-3.4,0-6.3-2.8-6.3-6.3V77.3c0-3.4,2.8-6.3,6.3-6.3h5
			C933.4,71,936.3,73.8,936.3,77.3z"/>
		<rect x="957.5" y="114.5" class="st12" width="280" height="188"/>
		<g class="st0">
			<path class="st13" d="M972.8,130c-3.5,1.3-6.7,1.5-9.7,0.6c-3.1-0.9-5.2-2.8-6.2-5.7c-1-2.8-0.9-6,0.3-9.8
				c1.4-4.2,3.6-6.9,6.8-8.1c1.7-0.6,3.6-1,5.9-1.1c2.9-0.1,4.6,0.4,5,1.5c0.2,0.5,0.1,1.1-0.1,1.6c-0.3,0.6-0.7,1-1.4,1.2
				c-0.5,0.2-1,0.2-1.4,0.1c-0.5-0.1-0.9-0.2-1.3-0.3c-1.2-0.3-3,0-5.3,0.8c-1.7,0.6-3,2.5-3.8,5.6c-0.7,2.8-0.8,5.1-0.2,6.8
				c0.7,1.8,1.9,2.9,3.8,3.4c1.8,0.4,3.8,0.3,6-0.6c1-0.4,2-1,3-1.8l2.5-2.3c0.4-0.4,0.8-0.6,1-0.7c0.6-0.2,1.2-0.2,1.9,0
				c0.6,0.2,1,0.6,1.2,1.1c0.4,1-0.6,2.4-2.9,4.3C976,128.4,974.3,129.5,972.8,130z"/>
		</g>
		<g class="st0">
			<path class="st14" d="M1230.8,314.2c-3,0-5.6-0.8-7.8-2.5c-2.4-1.9-3.7-4.4-3.8-7.5c-0.1-3,0.9-5.7,3.1-8.1
				c2.5-2.7,6-4.1,10.5-4.1c3.6,0,6.3,1.2,8.2,3.7c1.5,2,2.2,4.4,2.1,7.2c-0.1,3-1.1,5.6-3.1,7.7
				C1237.6,313,1234.5,314.2,1230.8,314.2z M1232.4,296.1c-2.6,0-4.7,0.9-6.2,2.8c-1.2,1.5-1.7,3.3-1.7,5.2c0,2,0.7,3.5,2.1,4.6
				c1.2,0.9,2.6,1.4,4.2,1.4c1.9,0,3.5-0.5,4.8-1.5c1.5-1.1,2.3-2.7,2.4-4.6C1238.2,298.7,1236.4,296.1,1232.4,296.1z"/>
		</g>
		<g class="st0">
			<path class="st15" d="M981,302.4c-1.4,0.9-4.3,0.8-8.4-0.2l-6.8-1.8l0.1,0.2l4.4,7.5c0.6,0.9,0.4,1.7-0.4,2.1
				c-0.5,0.3-1.1,0.3-1.7,0.1c-0.5-0.2-0.9-0.6-1.2-1c-1.3-2.2-3.2-5.6-5.7-10.1c-2.5-4.5-4.4-7.9-5.7-10.1
				c-0.2-0.4-0.3-0.8-0.2-1.3c0.1-0.4,0.4-0.8,0.8-1c0.4-0.2,0.8-0.3,1.3-0.2c0.4,0.1,0.8,0.4,1,0.8c0.5,0.9,1.3,2.4,2.4,4.4
				c1,2,1.8,3.4,2.4,4.4c0.6-2,1.1-4.3,1.6-7.1l1.3-7.2c0.1-0.6,0.4-1,0.8-1.2c0.4-0.2,0.8-0.3,1.3-0.2s0.8,0.4,1.1,0.8
				c0.4,0.6,0.1,3-0.7,7.2c-0.6,2.9-1.3,5.7-2,8.6c1.9,0.5,4.7,1.2,8.4,2l2.2,0.4c0.8,0.1,1.6,0.1,2.3-0.1c0.9-0.2,1.6,0.1,2,0.7
				c0.2,0.3,0.3,0.7,0.2,1.1C981.6,301.7,981.4,302.1,981,302.4z"/>
		</g>
		<g class="st0">
			<path class="st16" d="M1230.8,129.2c-3,0-5.6-0.8-7.8-2.5c-2.4-1.9-3.7-4.4-3.8-7.5c-0.1-3,0.9-5.7,3.1-8.1
				c2.5-2.7,6-4.1,10.5-4.1c3.6,0,6.3,1.2,8.2,3.7c1.5,2,2.2,4.4,2.1,7.2c-0.1,3-1.1,5.6-3.1,7.7
				C1237.6,128,1234.5,129.2,1230.8,129.2z M1232.4,111.1c-2.6,0-4.7,0.9-6.2,2.8c-1.2,1.5-1.7,3.3-1.7,5.2c0,2,0.7,3.5,2.1,4.6
				c1.2,0.9,2.6,1.4,4.2,1.4c1.9,0,3.5-0.5,4.8-1.5c1.5-1.1,2.3-2.7,2.4-4.6C1238.2,113.7,1236.4,111.1,1232.4,111.1z"/>
		</g>
		<rect x="963" y="328" class="st4" width="65" height="75"/>
		<rect x="1065" y="328" class="st17" width="65" height="75"/>
		<rect x="1159" y="328" class="st18" width="65" height="75"/>
		<rect x="883.5" y="670.5" class="st19" width="396" height="46"/>
		<rect x="0" y="407" class="st20" width="877" height="310"/>
		<rect x="0" y="-108" class="st20" width="877" height="223"/>
		<path class="st21" d="M871.2,414H323.8c-4.3,0-7.8-3.5-7.8-7.8v-17.3c0-4.3,3.5-7.8,7.8-7.8h547.3c4.3,0,7.8,3.5,7.8,7.8v17.3
			C879,410.5,875.5,414,871.2,414z"/>
		<rect x="877" y="-108" class="st20" width="403" height="147"/>
		<rect x="1.5" y="-90" class="st22" width="119.5" height="187"/>
		<rect x="129.5" y="-90.5" class="st22" width="134" height="187"/>
		<rect x="583" y="-90" class="st22" width="134" height="187"/>
		<rect x="725.5" y="-90.5" class="st22" width="134" height="187"/>
		<rect x="284" y="-90" class="st22" width="134" height="187"/>
		<rect x="427.5" y="-90.5" class="st22" width="134" height="187"/>
		<rect x="895" y="-99.7" class="st22" width="366.5" height="121.7"/>
		<rect x="734.5" y="-78.5" class="st23" width="113.9" height="158.9"/>
		<rect x="592.3" y="-78.1" class="st23" width="113.9" height="158.9"/>
		<rect x="436.5" y="-78.5" class="st23" width="113.9" height="158.9"/>
		<rect x="294.3" y="-78.1" class="st23" width="113.9" height="158.9"/>
		<rect x="138.6" y="-78.5" class="st23" width="113.9" height="158.9"/>
		<rect x="1" y="-78.1" class="st23" width="109.2" height="158.9"/>
		<rect x="335.5" y="432.5" class="st22" width="167" height="258"/>
		<rect x="348" y="451" class="st23" width="138" height="220"/>
		<rect x="514.5" y="432.5" class="st22" width="167" height="258"/>
		<rect x="527" y="451" class="st23" width="138" height="220"/>
		<rect x="695.5" y="432.5" class="st22" width="167" height="258"/>
		<rect x="708" y="451" class="st23" width="138" height="220"/>
		<linearGradient id="SVGID_7_" gradientUnits="userSpaceOnUse" x1="691" y1="48.05" x2="696.9" y2="48.05">
			<stop  offset="0" style="stop-color:#999999"/>
			<stop  offset="8.728403e-02" style="stop-color:#8A8A8A"/>
			<stop  offset="0.5272" style="stop-color:#404040"/>
			<stop  offset="0.8424" style="stop-color:#121212"/>
			<stop  offset="1" style="stop-color:#000000"/>
		</linearGradient>
		<path class="st24" d="M696.9,29.4v37.3c0,0.8-0.6,1.4-1.4,1.4h-3.1c-0.8,0-1.4-0.6-1.4-1.4V29.4c0-0.8,0.6-1.4,1.4-1.4h3.1
			C696.3,28,696.9,28.6,696.9,29.4z"/>
		<linearGradient id="SVGID_8_" gradientUnits="userSpaceOnUse" x1="745" y1="48.05" x2="750.9" y2="48.05">
			<stop  offset="0" style="stop-color:#999999"/>
			<stop  offset="8.728403e-02" style="stop-color:#8A8A8A"/>
			<stop  offset="0.5272" style="stop-color:#404040"/>
			<stop  offset="0.8424" style="stop-color:#121212"/>
			<stop  offset="1" style="stop-color:#000000"/>
		</linearGradient>
		<path class="st25" d="M750.9,29.4v37.3c0,0.8-0.6,1.4-1.4,1.4h-3.1c-0.8,0-1.4-0.6-1.4-1.4V29.4c0-0.8,0.6-1.4,1.4-1.4h3.1
			C750.3,28,750.9,28.6,750.9,29.4z"/>
		<linearGradient id="SVGID_9_" gradientUnits="userSpaceOnUse" x1="1036" y1="-18.95" x2="1041.9" y2="-18.95">
			<stop  offset="0" style="stop-color:#999999"/>
			<stop  offset="8.728403e-02" style="stop-color:#8A8A8A"/>
			<stop  offset="0.5272" style="stop-color:#404040"/>
			<stop  offset="0.8424" style="stop-color:#121212"/>
			<stop  offset="1" style="stop-color:#000000"/>
		</linearGradient>
		<path class="st26" d="M1041.9-37.6v37.3c0,0.8-0.6,1.4-1.4,1.4h-3.1c-0.8,0-1.4-0.6-1.4-1.4v-37.3c0-0.8,0.6-1.4,1.4-1.4h3.1
			C1041.3-39,1041.9-38.4,1041.9-37.6z"/>
		<linearGradient id="SVGID_10_" gradientUnits="userSpaceOnUse" x1="1113" y1="-18.95" x2="1118.9" y2="-18.95">
			<stop  offset="0" style="stop-color:#999999"/>
			<stop  offset="8.728403e-02" style="stop-color:#8A8A8A"/>
			<stop  offset="0.5272" style="stop-color:#404040"/>
			<stop  offset="0.8424" style="stop-color:#121212"/>
			<stop  offset="1" style="stop-color:#000000"/>
		</linearGradient>
		<path class="st27" d="M1118.9-37.6v37.3c0,0.8-0.6,1.4-1.4,1.4h-3.1c-0.8,0-1.4-0.6-1.4-1.4v-37.3c0-0.8,0.6-1.4,1.4-1.4h3.1
			C1118.3-39,1118.9-38.4,1118.9-37.6z"/>
		
			<linearGradient id="SVGID_11_" gradientUnits="userSpaceOnUse" x1="549.0002" y1="693.5494" x2="554.9003" y2="693.5494" gradientTransform="matrix(4.489659e-11 -1 1 4.489659e-11 -94.1 1034)">
			<stop  offset="0" style="stop-color:#999999"/>
			<stop  offset="8.728403e-02" style="stop-color:#8A8A8A"/>
			<stop  offset="0.5272" style="stop-color:#404040"/>
			<stop  offset="0.8424" style="stop-color:#121212"/>
			<stop  offset="1" style="stop-color:#000000"/>
		</linearGradient>
		<path class="st28" d="M562.3,479.1h74.3c0.8,0,1.4,0.6,1.4,1.4v3.1c0,0.8-0.6,1.4-1.4,1.4h-74.3c-0.8,0-1.4-0.6-1.4-1.4v-3.1
			C560.9,479.7,561.5,479.1,562.3,479.1z"/>
		
			<linearGradient id="SVGID_12_" gradientUnits="userSpaceOnUse" x1="549.0002" y1="511.5495" x2="554.9003" y2="511.5495" gradientTransform="matrix(4.489659e-11 -1 1 4.489659e-11 -94.1 1034)">
			<stop  offset="0" style="stop-color:#999999"/>
			<stop  offset="8.728403e-02" style="stop-color:#8A8A8A"/>
			<stop  offset="0.5272" style="stop-color:#404040"/>
			<stop  offset="0.8424" style="stop-color:#121212"/>
			<stop  offset="1" style="stop-color:#000000"/>
		</linearGradient>
		<path class="st29" d="M380.3,479.1h74.3c0.8,0,1.4,0.6,1.4,1.4v3.1c0,0.8-0.6,1.4-1.4,1.4h-74.3c-0.8,0-1.4-0.6-1.4-1.4v-3.1
			C378.9,479.7,379.5,479.1,380.3,479.1z"/>
		
			<linearGradient id="SVGID_13_" gradientUnits="userSpaceOnUse" x1="549.0002" y1="876.5494" x2="554.9003" y2="876.5494" gradientTransform="matrix(4.489659e-11 -1 1 4.489659e-11 -94.1 1034)">
			<stop  offset="0" style="stop-color:#999999"/>
			<stop  offset="8.728403e-02" style="stop-color:#8A8A8A"/>
			<stop  offset="0.5272" style="stop-color:#404040"/>
			<stop  offset="0.8424" style="stop-color:#121212"/>
			<stop  offset="1" style="stop-color:#000000"/>
		</linearGradient>
		<path class="st30" d="M745.3,479.1h74.3c0.8,0,1.4,0.6,1.4,1.4v3.1c0,0.8-0.6,1.4-1.4,1.4h-74.3c-0.8,0-1.4-0.6-1.4-1.4v-3.1
			C743.9,479.7,744.5,479.1,745.3,479.1z"/>
		
			<rect x="840.5" y="222.7" transform="matrix(0.9919 0.1272 -0.1272 0.9919 45.2658 -106.5692)" class="st31" width="32.4" height="156.6"/>
		<rect x="813.5" y="224.7" class="st18" width="16" height="156.6"/>
		<rect x="775.2" y="251.5" class="st32" width="22.3" height="129.4"/>
		
			<rect x="668.3" y="292.8" transform="matrix(7.559426e-11 -1 1 7.559426e-11 306.75 1049)" class="st33" width="19.3" height="156.6"/>
		
			<rect x="663.5" y="272.6" transform="matrix(7.719853e-11 -1 1 7.719853e-11 321.95 1023.8)" class="st34" width="18.9" height="156.6"/>
		
			<rect x="677.9" y="244.6" transform="matrix(3.514462e-11 -1 1 3.514462e-11 388.325 999.825)" class="st17" width="32.4" height="122.4"/>
		<rect x="797.5" y="235.5" class="st35" width="16" height="145.8"/>
		<rect x="756.2" y="217.5" class="st4" width="18.3" height="163.4"/>
		
			<rect x="668.5" y="253.6" transform="matrix(7.719853e-11 -1 1 7.719853e-11 345.95 1009.8)" class="st36" width="18.9" height="156.6"/>
		<path class="st37" d="M304,407H12c-6.6,0-12-5.4-12-12v-96c0-6.6,5.4-12,12-12h292c6.6,0,12,5.4,12,12v96
			C316,401.6,310.6,407,304,407z"/>
		<path class="st38" d="M316,407v302.3c0,4.2-3.4,7.7-7.5,7.7H7.5c-4.1,0-7.5-3.5-7.5-7.7V407.7"/>
		<path class="st39" d="M0,407v-12.3c0-2.9,3.4-5.2,7.5-5.2h301c4.1,0,7.5,2.3,7.5,5.2v11.8"/>
		<rect y="630" class="st40" width="316" height="87"/>
		<path class="st5" d="M287.3,446.5H23.8c-3.4,0-6.3-2.8-6.3-6.3v-1.5c0-3.4,2.8-6.3,6.3-6.3h263.5c3.4,0,6.3,2.8,6.3,6.3v1.5
			C293.5,443.7,290.7,446.5,287.3,446.5z"/>
		<rect x="24.5" y="457.5" class="st0" width="262" height="160"/>
		<rect x="47" y="479" class="st41" width="220" height="118"/>
		<path class="st5" d="M288.3,663.5H24.8c-3.4,0-6.3-2.8-6.3-6.3v-1.5c0-3.4,2.8-6.3,6.3-6.3h263.5c3.4,0,6.3,2.8,6.3,6.3v1.5
			C294.5,660.7,291.7,663.5,288.3,663.5z"/>
		<circle class="st42" cx="38.5" cy="419.5" r="10"/>
		<circle class="st42" cx="79.5" cy="419.5" r="10"/>
		<circle class="st42" cx="232.5" cy="419.5" r="10"/>
		<circle class="st42" cx="273.5" cy="419.5" r="10"/>
		<path class="st43" d="M210.8,347.5H105.2c-3.1,0-5.7-2.5-5.7-5.7v-37.7c0-3.1,2.6-5.7,5.7-5.7h105.7c3.1,0,5.7,2.5,5.7,5.7v37.7
			C216.5,345,213.9,347.5,210.8,347.5z"/>
		<g class="st0">
			<path class="st44" d="M207.5,313.5h-12c-1.6,0-3-1.4-3-3l0,0c0-1.6,1.4-3,3-3h12c1.6,0,3,1.4,3,3l0,0
				C210.5,312.1,209.1,313.5,207.5,313.5z"/>
			<path class="st44" d="M207.5,322.5h-12c-1.6,0-3-1.4-3-3l0,0c0-1.6,1.4-3,3-3h12c1.6,0,3,1.4,3,3l0,0
				C210.5,321.1,209.1,322.5,207.5,322.5z"/>
			<path class="st44" d="M207.5,331.5h-12c-1.6,0-3-1.4-3-3l0,0c0-1.6,1.4-3,3-3h12c1.6,0,3,1.4,3,3l0,0
				C210.5,330.1,209.1,331.5,207.5,331.5z"/>
			<path class="st44" d="M207.5,340.5h-12c-1.6,0-3-1.4-3-3l0,0c0-1.6,1.4-3,3-3h12c1.6,0,3,1.4,3,3l0,0
				C210.5,339.1,209.1,340.5,207.5,340.5z"/>
		</g>
		<g class="st0">
			<path class="st44" d="M121.5,313.5h-12c-1.7,0-3-1.4-3-3l0,0c0-1.6,1.3-3,3-3h12c1.7,0,3,1.4,3,3l0,0
				C124.5,312.1,123.2,313.5,121.5,313.5z"/>
			<path class="st44" d="M121.5,322.5h-12c-1.7,0-3-1.4-3-3l0,0c0-1.6,1.3-3,3-3h12c1.7,0,3,1.4,3,3l0,0
				C124.5,321.1,123.2,322.5,121.5,322.5z"/>
			<path class="st44" d="M121.5,331.5h-12c-1.7,0-3-1.4-3-3l0,0c0-1.6,1.3-3,3-3h12c1.7,0,3,1.4,3,3l0,0
				C124.5,330.1,123.2,331.5,121.5,331.5z"/>
			<path class="st44" d="M121.5,340.5h-12c-1.7,0-3-1.4-3-3l0,0c0-1.6,1.3-3,3-3h12c1.7,0,3,1.4,3,3l0,0
				C124.5,339.1,123.2,340.5,121.5,340.5z"/>
		</g>
		<g class="st0">
			<path class="st45" d="M66,340.3c0,0,68.4-65.8,74.2-66.3c0,0,2,1,1.8,2.4l-69.4,67.8C72.5,344.2,69.3,346.6,66,340.3z"/>
			<path class="st46" d="M109.1,388.5H18.9c-3.5,0-6.4-2.9-6.4-6.4v-64.3c0-3.5,2.9-6.4,6.4-6.4h90.3c3.5,0,6.4,2.9,6.4,6.4v64.3
				C115.5,385.6,112.6,388.5,109.1,388.5z"/>
			<path class="st47" d="M143.3,389h-108c-2.6,0-4.8-2.1-4.8-4.8v-20c0-2.6,2.1-4.8,4.8-4.8h108c2.6,0,4.8,2.1,4.8,4.8v20
				C148,386.9,145.9,389,143.3,389z"/>
			<path class="st47" d="M284.3,389h-91.6c-3.1,0-5.7-2.6-5.7-5.7v-40.6c0-3.1,2.6-5.7,5.7-5.7h91.6c3.1,0,5.7,2.6,5.7,5.7v40.6
				C290,386.4,287.4,389,284.3,389z"/>
			<path class="st46" d="M271.5,389h-36c-4.1,0-7.5-3.4-7.5-7.5v-28c0-4.1,3.4-7.5,7.5-7.5h36c4.1,0,7.5,3.4,7.5,7.5v28
				C279,385.6,275.6,389,271.5,389z"/>
			<path class="st48" d="M194.6,356.5l-23-8c0,0-8,0-4,6l25,8L194.6,356.5z"/>
			<path class="st49" d="M135.5,367.5c0,0,94-13,99-10c0,0,1,2,0,3l-96,14C138.5,374.5,134.5,374.5,135.5,367.5z"/>
			<path class="st48" d="M281.5,356.5l23-8c0,0,8,0,4,6l-25,8L281.5,356.5z"/>
			<path class="st50" d="M269.1,358.5c0,0,63.2-13,66.5-10c0,0,0.7,2,0,3l-64.5,14C271.1,365.5,268.4,365.5,269.1,358.5z"/>
			<path class="st48" d="M107.4,320.2l22.1-10.7c0,0,8,0,4,8.4c0,0-24,10.7-24,10.7c0,0-0.5,0.9-1.3-0.6c-0.6-1.1-1.3-4.9-1.6-6.5
				C106.6,320.9,107.4,320.2,107.4,320.2z"/>
			<path class="st48" d="M0,320.2c7.1,3.2,18.7,8.4,18.7,8.3c0,0,0.5,0.9,1.3-0.6c0.6-1.1,1.3-4.9,1.6-6.5c0.1-0.5-0.8-1.2-0.8-1.2
				L0,310.1"/>
			<g>
				<radialGradient id="SVGID_14_" cx="238.5" cy="323.5717" r="6.8393" gradientUnits="userSpaceOnUse">
					<stop  offset="0" style="stop-color:#FFFFFF"/>
					<stop  offset="8.490787e-02" style="stop-color:#F6F6F6"/>
					<stop  offset="0.2245" style="stop-color:#DDDDDD"/>
					<stop  offset="0.4013" style="stop-color:#B5B5B5"/>
					<stop  offset="0.6086" style="stop-color:#7D7D7D"/>
					<stop  offset="0.8387" style="stop-color:#363636"/>
					<stop  offset="1" style="stop-color:#000000"/>
				</radialGradient>
				<path class="st51" d="M244.3,329.7c1-1.3,1.7-2.9,1.7-4.7c0-4.1-3.4-7.5-7.5-7.5s-7.5,3.4-7.5,7.5c0,1.7,0.6,3.2,1.5,4.5l2,0
					c-0.6-0.8-1-1.9-1-3c0-2.8,2.2-5,5-5s5,2.2,5,5c0,1.2-0.4,2.3-1.1,3.1L244.3,329.7z"/>
				<g>
					<path class="st52" d="M238,335h-47l1-2c2-2,46-3,46-3h1c0,0,44,1,46,3l1,2h-47H238z"/>
					<linearGradient id="SVGID_15_" gradientUnits="userSpaceOnUse" x1="190" y1="336" x2="287" y2="336">
						<stop  offset="0" style="stop-color:#999999"/>
						<stop  offset="8.728403e-02" style="stop-color:#8A8A8A"/>
						<stop  offset="0.5272" style="stop-color:#404040"/>
						<stop  offset="0.8424" style="stop-color:#121212"/>
						<stop  offset="1" style="stop-color:#000000"/>
					</linearGradient>
					<path class="st53" d="M286.5,335h-96c-0.3,0-0.5,0.2-0.5,0.5v1c0,0.3,0.2,0.5,0.5,0.5h96c0.3,0,0.5-0.2,0.5-0.5v-1
						C287,335.2,286.8,335,286.5,335z"/>
					<path class="st54" d="M238,334.5h-47l1-2c2-2,46-3,46-3h1c0,0,44,1,46,3l1,2h-47H238z"/>
				</g>
			</g>
		</g>
		<rect x="135.5" y="311.5" class="st55" width="46" height="23"/>
		<g class="st0">
			<text transform="matrix(1 0 0 1 149.5 327.667)" class="st56 st57 st58">4:20</text>
		</g>
		<path class="st59" d="M181.3,597h-68.5c-3.2,0-5.8-2.6-5.8-5.8V434.8c0-3.2,2.6-5.8,5.8-5.8h68.5c3.2,0,5.8,2.6,5.8,5.8v156.5
			C187,594.4,184.4,597,181.3,597z"/>
		<path class="st42" d="M30.6,421.4L30.6,421.4c-0.2-1.4,0.7-2.7,2-2.9l10.8-1.9c1.4-0.2,2.7,0.7,2.9,2h0c0.2,1.4-0.7,2.7-2,2.9
			l-10.8,1.9C32.2,423.7,30.9,422.7,30.6,421.4z"/>
		<path class="st42" d="M73.1,423.5L73.1,423.5c-0.7-1.2-0.3-2.7,0.9-3.4l9.5-5.5c1.2-0.7,2.7-0.3,3.4,0.9h0
			c0.7,1.2,0.3,2.7-0.9,3.4l-9.5,5.5C75.3,425.1,73.8,424.7,73.1,423.5z"/>
		<path class="st42" d="M240.5,420L240.5,420c0,1.4-1.1,2.5-2.5,2.5h-11c-1.4,0-2.5-1.1-2.5-2.5l0,0c0-1.4,1.1-2.5,2.5-2.5h11
			C239.4,417.5,240.5,418.6,240.5,420z"/>
		<path class="st42" d="M279.7,425.2L279.7,425.2c-1,1-2.6,1-3.5,0l-7.8-7.8c-1-1-1-2.6,0-3.5l0,0c1-1,2.6-1,3.5,0l7.8,7.8
			C280.6,422.6,280.6,424.2,279.7,425.2z"/>
		<g class="st0">
			<g>
				<g>
					<g>
						<g>
							<path class="st60" d="M110.6,580.4c0-0.1-0.1-0.3-0.2-0.2l0,0.4L110.6,580.4z"/>
							<path class="st60" d="M109,580.3c-0.2,0.2-0.7,0.7-0.6,1c0.4-0.5,0.5-0.4,0.8-0.9c0.2-0.1,0.4,0,0.4,0.1
								c0.1-0.1,0.4,0,0.4-0.3c-0.4-0.1-0.7-0.1-1.1,0.3C108.9,580.5,109,580.4,109,580.3z"/>
							<path class="st60" d="M106.8,561.2l0,0.1C106.8,561.3,106.8,561.2,106.8,561.2z"/>
							<path class="st60" d="M107.6,548.3c0,0.1,0,0.1,0.1,0.1C107.6,548.3,107.6,548.2,107.6,548.3z"/>
							<path class="st60" d="M108.1,546.1c0,0,0,0.1,0,0.1C108.1,546.2,108.1,546.1,108.1,546.1z"/>
							<path class="st60" d="M106.8,561.2l0.1-0.3C106.8,560.8,106.8,561,106.8,561.2z"/>
							<path class="st60" d="M106.7,579.4c0,0.1,0.1,0.2,0.1,0.2L106.7,579.4C106.8,579.4,106.8,579.4,106.7,579.4z"/>
							<path class="st60" d="M107.1,566.8l0,0.1c0,0,0.1,0.1,0.1,0.1L107.1,566.8z"/>
							<path class="st60" d="M107.4,571.2c0-0.1-0.3-0.1-0.4-0.1c0.1,0,0.2,0.1,0.2,0.2C107.2,571.2,107.3,571.2,107.4,571.2z"/>
							<path class="st60" d="M107.7,578.1l0.1,0.1C107.7,578.2,107.7,578.1,107.7,578.1z"/>
							<path class="st60" d="M107.1,563.7c0,0,0.1,0,0.1,0C107.2,563.7,107.1,563.7,107.1,563.7z"/>
							<path class="st60" d="M106,441.4C106,441.4,106,441.4,106,441.4C106,441.4,106,441.4,106,441.4z"/>
							<path class="st60" d="M107.5,436.3L107.5,436.3c0.1,0.1,0.1,0.1,0.2,0.1L107.5,436.3z"/>
							<path class="st60" d="M108.8,542.1C108.8,542.1,108.8,542.1,108.8,542.1C108.8,542.2,108.8,542.1,108.8,542.1z"/>
							<path class="st60" d="M108.1,504.8c-0.2,0.4-0.3-0.7-0.6,0C107.6,504.7,108,505.4,108.1,504.8z"/>
							<path class="st60" d="M106.8,579.2l0-0.3C106.7,579.1,106.7,579.2,106.8,579.2z"/>
							<path class="st60" d="M107.5,504.8L107.5,504.8L107.5,504.8C107.5,504.8,107.5,504.8,107.5,504.8z"/>
							<path class="st60" d="M109.2,532.7c-0.1,0-0.1,0.1-0.1,0.1C109.1,532.8,109.1,532.8,109.2,532.7z"/>
							<path class="st60" d="M108.4,539.7l0-0.2C108.4,539.6,108.4,539.6,108.4,539.7z"/>
							<path class="st60" d="M108.9,529.1c0-0.1,0.1-0.1,0-0.3c0,0,0,0,0,0C108.9,528.9,108.9,529,108.9,529.1z"/>
							<path class="st60" d="M108.9,525.3C108.9,525.3,108.9,525.3,108.9,525.3c-0.1,0.1,0,0.2,0,0.2L108.9,525.3z"/>
							<path class="st60" d="M106.2,452.9c0.1-0.1,0.2-0.1,0.2-0.2C106.2,452.8,106.1,452.2,106.2,452.9z"/>
							<path class="st60" d="M106.9,579.3c-0.1,0-0.1,0-0.1-0.1C106.8,579.3,106.8,579.3,106.9,579.3
								C106.8,579.4,106.9,579.4,106.9,579.3z"/>
							<path class="st60" d="M106.7,528.9l0-0.6C106.7,528.5,106.7,528.7,106.7,528.9z"/>
							<path class="st60" d="M107.6,479.6l0-0.1C107.6,479.5,107.6,479.5,107.6,479.6z"/>
							<path class="st60" d="M106.7,526.5c0.1-0.1,0.2-0.2,0.2-0.3c0,0,0-0.1-0.1-0.1L106.7,526.5z"/>
							<path class="st60" d="M106.4,452.7L106.4,452.7L106.4,452.7z"/>
							<path class="st60" d="M105.7,448.7c0,0.6,0.4,0.3,0.6,0.4c0.1,0.7-0.3,0.3-0.5,0.6c0.1,0.4,0.4,0.7,0.4,1.1
								c-0.1,0-0.1,0.1-0.2,0c0.3,0.4,0.1,1.3,0.4,1.9c0,0-0.1,0.1-0.1,0.1c0.2-0.1,0.4-0.1,0.5-0.1c0,0.3,0.3,0.5,0,0.6
								c0-0.2-0.1-0.2-0.2-0.2l0.1,0.3c-0.3,0.3-0.1-0.4-0.4-0.3c0.1,0.5,0.5,1.1,0.4,1.5c-0.3,0.1-0.2-0.9-0.4-0.4l0.1-0.6
								c-0.5,0.5,0-0.4-0.5,0.1c-0.1,0.8,0.2,0.9,0.2,1.7c0.2,0.2,0.3-0.1,0.5,0.1c0.4,1.1-0.8,1-0.3,1.8c0.2,0.2,0.7,0.3,0.5,0.9
								l-0.4-0.2c0,0.8,0.6,0.4,0.4,1.3c-0.2-0.1-0.2-0.6-0.2-0.5c-0.3,0.6,0.3,0.4,0.3,0.8l-0.3,0.1c0.1,0.8,0.5,1.7,0.7,2.6
								c-0.1,0-0.2-0.2-0.3,0c0.3,1.1,0.3,2.5,0.2,3.6l0.3,0.4c0,0.1-0.1,0.2-0.2,0.1c-0.1,0.4,0.2,0,0.3,0.2c0,0.2-0.1,0.3-0.2,0.2
								c0.3,0.7,0.7,2.1,0.5,3l-0.1-0.2c-0.1,0.6,0.6,0.7,0.4,1.3l-0.1-0.1c-0.1,1.4,0.2,2.9-0.3,3.9c0.4,0.2-0.2,1.3,0.4,1.4
								c-0.3,0.8-0.4,0.5-0.7,1.6c0,0.3,0.3,0.5,0.4,0.8l-0.3,0l0.3,0.5l-0.4,0.2l0.1,0.3c0-0.1,0.2-0.3,0.2-0.3
								c0.1,0.5-0.3,1.3-0.5,1.3l0.2,1.3c-0.1,0-0.1-0.3-0.2-0.4c0.3,0.7-0.3,0.1-0.1,0.7c0.1-0.1,0.2,0.1,0.2,0.1
								c-0.2,0.3-0.3,1-0.3,1.5l-0.2-0.1c-0.2,0.9-0.1,2-0.2,3c0.1-0.4,0.5-0.2,0.5,0.1l-0.3,0.1c0.2,0.2,0.2-0.3,0.4,0.1
								c-0.1,0.4-0.4,0.2-0.5,0l0.1,0.5c-0.1,0-0.1-0.1-0.3-0.1c0.2,0.2-0.4,0.8-0.1,1.1l-0.1,0c-0.1,1.1-0.1,1.5-0.1,2.4
								c0.3,0,0.2,0.4,0.4,0.7c-0.2,0.6-0.4,1.3-0.5,2.1c0.1,0.6,0.2,0.2,0.4,0.4c-0.3,0-0.3,0.8-0.4,0.4c0,0.9-0.1,1.2,0.1,2.4
								c0.1-0.1,0.2-0.3,0.3-0.2c0,0.2-0.1,0.5-0.3,0.4l0-0.1c0.3,1.3-0.9,3-0.4,4.1l0-0.1c0.1,0.4,0.2,0.7,0.3,1.1
								c0,0.5-0.2-0.3-0.4,0.1c0.4,1.2-0.1,1.9,0.3,2.8c-0.7,0.8,0.2,2.6-0.3,3.7l0.2-0.1c0.2,0.2-0.1,0.3-0.1,0.5
								c0.1,0,0.1-0.3,0.2-0.1c0.4,2.2,0.1,4.5,0.1,6.8c0,0.8,1,0.4,0.6,1.4l-0.3-0.3c0.5,1.6,0.2,3.3,0.6,4.9
								c-0.1-0.1-0.2-0.1-0.2-0.2c-0.2,0.3,0,1.2,0.2,1.2c0,0.2-0.2,0.1-0.3,0.2c-0.1,0.3,0.3,0.8,0.1,1c0,0-0.1-0.1-0.1-0.2
								c0.1,0.2,0,1,0.3,0.8c-0.1,0.6,0.1,1.1,0,1.6c0.3,0.3-0.2,1,0.3,1.1c-0.5,0-0.4,1-0.2,1.4c-0.1-0.1-0.1,0.3-0.3,0.2
								c0,0.4,0.1,0.8,0.3,0.8c-0.6,0.8,0.4,1.6-0.3,2.1c0.2,1.3,0.3,2.5,0.3,3.7c-0.4-0.1,0-1.3-0.5-1.3c0.1,1.1,0.5,1.8,0.3,2.9
								c-0.1,0.3-0.2-0.2-0.3-0.3c0.1,1.1-0.2,2.1,0,3.1c0,0-0.1-0.1-0.1-0.2c0,0.2-0.1,0.4,0.1,0.4l0-0.2c0.3-0.3,0.6,0.8,0.7,0.9
								c-0.6-0.4-0.2,1-0.9,0.4c0,0.1,0.1,0.3,0.3,0.3c-0.1,0.2-0.1,0.2-0.3,0c0.1,0.7,0.3,0.5,0.2,1.1c-0.1,0-0.1-0.1-0.2-0.2
								c0.2,0.3,0.3,0.7,0.2,1.2c-0.1,0-0.1,0-0.1-0.1c0,0.9,0.4,1.6,0.1,2.6c-0.4-0.3-0.2,0.3-0.5,0.4l0.1,0.5l0.2-0.2
								c0,0.5,0.2,0.9,0.1,1.3l-0.1-0.4l0,0.9l0.2-0.5c0.2,0.5,0.5,0,0.3,0.6c0-0.1,0,0.5-0.3,0.7l0,0c0.1,0.2,0.2,0.5,0.1,0.8
								c-0.1,0.1-0.4-0.1-0.5,0c0.3,0.3,0,1.1,0.3,1.4c-0.1-0.1-0.3-0.1-0.3-0.1l0.2,0.2c-0.1,0.2-0.1,0.2-0.3,0.2
								c-0.1,0.7,0.5-0.2,0.2,0.6c0-0.1-0.1,0-0.1-0.2c-0.2,0.8,0.1,1.5-0.1,2.2c-0.4,0.2-0.1-0.6-0.4-0.4c0,1,0.3,2.2,0.2,3.2
								l0-0.2c0.5,0.2-0.3,0.7-0.1,1.3c0-0.1-0.3-0.2-0.2-0.1c-0.1,0.7,0.1,1.4,0.2,2.5l-0.1-0.1c-0.1,0.4-0.1,1.1-0.2,1.5
								c0.1,0.1,0.1,0.4,0.3,0.2c-0.8,1.4,0.4,2.6-0.2,3.8c0-0.1-0.1-0.3-0.1-0.2c0,0.3,0.1,0.7,0.2,1c0.2-0.1,0.1-0.1,0.3-0.4
								c0.1,0.1,0.3,0.4,0.3,0.7c-0.2-0.5-0.4,0-0.5,0.2c0.1,0,0.2,0,0.2,0c-0.4,0.6,0.5,0.1,0.2,0.8l-0.1,0
								c0.1,0.3,0.2,0.5,0.2,0.8c-0.3,0.1-0.1-0.3-0.4-0.3c0,0.4,0.5,0.8,0.3,1.2c-0.1-0.2-0.1-0.4-0.2-0.6
								c-0.3,0.4-0.2,0.5-0.2,0.8l0,0l-0.1,0.7l0.1-0.2c0.7,0.5,0.2,1,0.7,1.7c-0.5-0.6-0.3-0.1-0.6-0.1c-0.1,0.2-0.1,0.5-0.2,0.4
								c0.3,0.3-0.2,0.6,0.3,1c-0.1,0,0,0.4-0.2,0.3c0.1,0.4,0.2-0.1,0.3-0.1c0.4,0.6-0.2,1.6,0.4,2.5c0.3,0.8,0.6,0.9,0.9,1.6
								c-0.1,0.3-0.4-0.2-0.4-0.2c-0.1,0.4,0,0.7,0.2,1.1c-0.1-0.1-0.2,0-0.2,0.2c0.1,0.4,0.4,0.1,0.3,0.7c-0.1,0-0.3,0-0.4-0.2
								c0.2,0.5,0.4,0.8,0.6,1.2c-0.1,0.3-0.3,0-0.4-0.1c0,0.1,0.1,0.3,0.1,0.5l0.1,0.2l0,0.1c0,0,0,0,0,0l0.1,0
								c0.4-0.2,0.7-0.4,0.8-0.6l-0.3,0c0.2-0.1,0,0.3-0.2,0.4c-0.1,0.1-0.3,0.2-0.4,0.2c0-0.1,0-0.2,0-0.3c0-0.2,0.1-0.4,0.1-0.4
								l0.1,0.2c0.2-0.5,0.1-0.7,0-1c-0.1-0.2-0.3-0.6-0.4-0.9c0.1,0,0.3,0.1,0.4,0.1c-0.1-0.1-0.3-0.3-0.4-0.5
								c0.1-0.1,0.3-0.3,0.4,0c0.1-0.4-0.2-0.3,0-0.7c0,0,0.1,0,0.1,0l-0.2-0.4c0.1,0.1,0.3-0.1,0.3,0.1c0.1-0.7-0.5-1-0.2-1.3
								l0,0.1c-0.3-0.9-0.3,0-0.8-0.7l0.7-0.6l-0.3-0.1c0-0.1,0-0.3,0.1-0.3c-0.3-0.3-0.1,0.1-0.3-0.1c0.2-0.5-0.3-1.3,0.2-1.4
								c-0.3-0.1-0.1,0.5-0.3,0c0.5-0.2-0.1-0.6,0.1-1c0.3,0.1,0.2,0.5,0.4,0.1c-0.5-0.2,0-0.8-0.1-1.2c-0.4,0-0.2-0.8-0.4-1.4
								c0.1,0,0.2-1.2,0.3-1.7l0.1,0c-0.4-0.1-0.3-0.7-0.4-1.1c0.2,0,0.3,0.1,0.4,0.3l0-0.4c-0.1-0.1-0.2-0.2-0.2-0.5l0.3,0.1
								c0-0.5-0.3-1.1-0.2-1.8c-0.3,0-0.7,0.6-0.9-0.2c0.1,0,0.4-0.1,0.4,0.1c0-0.1-0.1-0.2-0.1-0.3l0.2,0.3
								c0.1-0.3-0.2-0.2-0.2-0.4c0.2,0,0.1-0.2,0.3-0.2c0,0.1-0.1,0.2,0,0.3c0-0.3,0.1-0.6,0.3-0.7c-0.1,0-0.3,0-0.3-0.2
								c0-0.5,0.2-0.2,0.3-0.5c-0.1-0.1,0-0.5-0.3-0.5c0-0.2,0.1-0.2,0.2-0.2c-0.1-0.3,0-1.3-0.3-1l0,0.1c0,0,0,0,0,0l0,0l0,0
								c-0.3-0.9,0.2-1.9,0.1-2.8l0.1,0c-0.1-0.5,0-1.2-0.2-1.6c0-0.2,0.2-0.4,0.3-0.3c-0.1-0.4-0.2-0.5,0-1.1
								c0.2,0.4,0.2-0.1,0.1,0.4c0.1-0.5,0.3-0.6,0-1.2c0.2,0.2,0.3-0.4,0.3-0.6l-0.2,0.4c0-0.3,0-0.5,0.1-0.8l0.3,0.2
								c0.5-1.1-0.6-2,0.2-2.8c-0.2-0.3-0.2,0.6-0.5,0.3c0.1-0.5,0.6-1,0.6-1.1c0.2-0.7-0.4-0.7-0.3-1.4c-0.1,0.1-0.4,0.1-0.5-0.4
								c0.1-0.5,0.5-0.6,0.6-0.3c0,0.1,0,0.2-0.1,0.2c0,0.2,0.1,0.4,0.2,0.2l-0.1-0.1c0.1-0.2,0.2-0.9,0.4-0.8
								c-0.1-0.4-0.2-0.2-0.3,0.1c0.2-0.6,0.1-1,0.2-1.7c-0.1,0.1-0.2,0.2-0.2,0.1c0.2-1-0.2-0.4-0.2-1.1c0.2-0.4,0.4,0.2,0.3-0.5
								c0.2-0.4,0.3-0.1,0.4,0.1c-0.2-0.6,0.2-1.1,0.3-1.5l0.1,0.3c0-0.2,0-0.4,0-0.5l-0.2,0.2c0.1-0.2,0.1-0.3,0.2-0.3
								c-0.1-0.2-0.4,0.1-0.6-0.3c0.1-0.2-0.1-0.8,0.2-0.8c-0.2,0.8,0.3-0.1,0.3,0.6c0-0.1,0-0.3,0-0.5c0,0,0.1,0,0.1,0.1
								c0.3-0.7-0.3-0.4-0.3-1.1c0.2,0.1,0.3-0.2,0.3-0.3c0,0.3-0.3,0.1-0.4-0.2c0.2-0.5-0.1-0.6,0-0.8l-0.1,0.3
								c-0.2-0.1-0.1-0.4-0.2-0.7c0.1,0,0.1,0.3,0.1,0.2c-0.3-0.4,0.4-0.9,0.2-1.4c0.1-0.2,0.3,0,0.4-0.2c-0.2-0.6,0.3-0.6,0.1-1.3
								c-0.3,0.2-0.2,0.2-0.4-0.3l0.1,1.1l-0.3-0.7c0,0.3,0.1,0.7,0.1,0.9c-0.2-0.3-0.1-0.3-0.3-0.2c0.4-0.4-0.2-0.9,0.1-1.4l0.6,0
								c0.3-0.7-0.2-1.4,0-2.3l-0.1,0.3c-0.2-0.1,0-0.6-0.1-0.9c0.2,0,0.3-0.2,0.4-0.3c-0.1,0,0-0.7-0.4-0.8l0.3-0.4
								c0.1-0.8-0.5-0.9-0.4-1.7c0.2,0.2,0.4-0.1,0.5,0.4c0-0.3,0.1-0.5-0.1-0.5c0.1-0.1-0.2-0.7-0.1-0.9c-0.1-0.1-0.3-0.1-0.3-0.4
								c0,0,0.1,0,0.1,0c-0.1,0-0.1-0.4-0.3-0.2c0.6-0.8,0-2.2,0.5-2.9c-0.1-0.6-0.2-1.2-0.2-1.7c0.1,0,0.1,0,0.1,0.1
								c0.2-0.7-0.6-0.4-0.4-1.2c0.3-0.4,0.2,0.4,0.3,0.2c0.6-0.1-0.1-1,0.2-1.5l0,0.1c0.2-0.4-0.3-1-0.3-1.6c0,0,0.1,0,0.1,0
								c-0.4-0.4-0.5-1.3-0.7-1.9c0.3,0.2,0.2,0.3,0.4,0.1c-0.1-0.3-0.4,0.1-0.5-0.5c0.1-0.2,0.2-0.6,0.5-0.7l0.1,0.5
								c0.3-0.3-0.1-0.7,0-1l0.2,0c-0.1-0.8-0.5-0.8-0.5-1.7l-0.1,0.1c-0.4-0.5,0.2-0.4-0.1-0.9l0.4-0.2c-0.1-0.3-0.5-1.1-0.6-1.6
								c0.3,0.3,0.5,1,0.7,1.4c0-0.3-0.1-1.1-0.3-1.2c0,0.1,0.2,0.3,0.1,0.4c-0.3-0.4-0.5-0.9-0.6-1.5c0.8,0.1,0.1-1.6,0.6-2.1
								c-0.4-1.1,0-2.2-0.1-3.5c-0.6,0.5,0-0.4-0.6-0.3c0-0.3,0-0.4,0-0.4l0.3-0.9c0.2-0.2,0.1,0.3,0.3,0.2c0-0.7,0.3-0.3,0.4-0.7
								c-0.2,0.1-0.3-0.2-0.2-0.6l-0.3,0.5c-0.3-0.9,0.5-0.8,0.2-1.7l0.2,0.3c-0.1-0.5,0-1.7-0.4-2.2c0.1-0.1,0.2-0.2,0.3,0
								c0.1-1.1-0.4-2.5,0-3.4l0.1,0.1c0-0.2-0.3-0.4-0.1-0.6c0.1,0,0.1,0.1,0.2,0c0-0.1-0.2-0.6-0.1-0.9l0.1,0.3
								c0.3-1.1-0.3-1.7-0.3-2.7c0.4,0,0.7-0.8,0.8-1.2l0.1,0c0.2-1.3-0.1-2.2-0.2-3.4c0.6-0.7,0.5-2.5,0.9-3.7
								c-0.1,0.2-0.3-0.1-0.4-0.3c0.1-0.3-0.2-0.8,0.2-0.7l0,0.1c0.4-0.2,0.4-0.8,0.4-1.2l-0.5-0.1c0.9-1.1,0-3.1,0.7-3.7
								c-0.1-0.3-0.1-0.7-0.2-0.9l0.3,0c0.1-0.8,0.2-1.2,0.1-2.2l0.2,0.2c0-0.6-0.8-0.7-0.8-1.2l0.4-0.1c0-1,0.4-2-0.1-2.9
								c0.1,0,0.2,0,0.2,0.2c0-0.5,0.2-1.8-0.4-1.6c0.4,0,0-1-0.2-1.5l0.3,0.1c-0.4-0.4-0.5-0.4-0.6-1c0-0.1,0.2-0.1,0.2,0.1
								c0.1-0.5-0.3-0.4-0.2-1l0.2,0.2c0-0.5-0.1-0.4-0.4-0.7c-0.1-0.3,0-0.9,0.2-1c-0.2,0-0.4-0.3-0.4-0.6c0.1-0.1,0.2,0,0.2,0.1
								c0.1-0.8-0.5-1.2-0.3-1.8c0.1,0,0.1-0.1,0.2-0.1c0.1,0.7,0.1,1.2,0.1,1.1c0.3,0,0.2-0.6,0.6-0.2c-0.2-0.4-0.8-1.1-0.7-1.6
								c0,0,0-0.1,0.1-0.1l0,0c0-0.1,0-0.2-0.1-0.3c0-0.2,0-0.3,0-0.4c0.2-0.1,0-0.6,0-0.9c-0.3,0.1-0.3-0.3-0.5,0.1
								c0,0,0,0,0.1,0.2c0,0,0,0.1,0,0.1l0,0c0,0.2,0.1,0.4,0.1,0.7c-0.2-0.2-0.3-0.4-0.2-0.7c-0.2-0.1-0.4-0.2-0.5-0.3
								c0.3-0.4,0.5-1.1,0.7-1.2c-0.2-0.8-0.3-1.9-0.8-2.3c-0.1-0.2,0.1-0.3,0.2-0.4c0.1,0.1,0.1,0.3,0.1,0.4
								c-0.2-0.4-0.1-1.3-0.5-1.4c0.1-0.6,0.4,0.3,0.2-0.5l0.1,0.1c0.5-1.6-1.1-2.5-0.4-4.3c0,0.1-0.1,0.2-0.1,0.2
								c0.3-2-0.4-4.1,0.2-6c0.1-0.6-0.1-0.6-0.3-1l0.3-0.1l-0.3-0.6c-0.2-0.8,0.8-1.4,0.3-2.5l-0.2,0.1c0-0.4-0.1-1.2,0.1-1.1
								c0,0-0.2-0.1-0.1-0.3l0.2,0l-0.2-0.9c0.1-0.7,0.6,0.1,0.7-0.9c-0.1-0.4-0.4-1.1-0.5-1c0,0.2-0.1,0.4-0.3,0.4l-0.1-0.4
								c-0.5-0.1-0.9-0.4-1.3,0.5l0.3,0.6l-0.2,0.2l0-0.5c-0.2,0.3,0,0.5,0.1,0.7c-0.1,0-0.2,0.1-0.3,0.2l0.4,0.6
								c-0.2,0.1-0.4-0.3-0.5,0.1c0.2,0.3,0.4-0.3,0.5,0.2c-0.2,0.3-0.4,0.2-0.2,0.5c-0.1,0-0.2,0-0.2-0.2c0.1,0.3,0,0.8,0.3,1
								c-0.3,0.3,0,1-0.4,1c0.1,0.1,0.3,0.5,0.3,0.8c-0.5-0.5,0,1-0.6,0.9c0.5,0.4,0.2,1.4,0.5,2c0,0-0.1-0.1-0.1-0.2
								c0,0.4-0.2,0.5-0.3,0.7c0.4,0,0.5,0.6,0.7,1c-0.4,0.5-0.5-0.3-0.8-0.1c0.3,0,0.3,0.8,0.6,0.6c-0.2,0.4-0.1,0.3-0.4,0.5
								c0.5,0.1,0.1,0.3,0.4,0.6c-0.2,0.5-0.5,0.1-0.3,0.7C105.8,449.2,105.7,448.7,105.7,448.7z M107.4,462L107.4,462
								c0-0.1,0-0.2-0.1-0.3C107.3,461.8,107.4,461.9,107.4,462z M107.5,463.2c0-0.1,0-0.3,0-0.5c0.1-0.1,0.2,0,0.2,0.1
								C107.6,462.7,107.6,463,107.5,463.2z M109.2,460.6c0.1,0.2,0,0.2,0,0.3c0-0.1,0-0.2-0.1-0.3l0,0
								C109.1,460.5,109.1,460.6,109.2,460.6z"/>
							<path class="st60" d="M108.8,460.3C108.8,460.3,108.8,460.3,108.8,460.3C108.7,460.3,108.7,460.3,108.8,460.3L108.8,460.3
								C108.8,460.4,108.8,460.3,108.8,460.3z"/>
							<path class="st60" d="M106.7,561.3L106.7,561.3C106.7,561.3,106.7,561.3,106.7,561.3C106.7,561.3,106.7,561.3,106.7,561.3z"
								/>
							<polygon class="st60" points="107.6,478.4 107.6,478.4 107.6,478.3 							"/>
							<path class="st60" d="M105.8,567.5C105.8,567.5,105.8,567.5,105.8,567.5C105.8,567.6,105.8,567.5,105.8,567.5z"/>
							<path class="st60" d="M105.9,570.1l-0.1,0.4C105.8,570.4,105.9,570.2,105.9,570.1z"/>
							<path class="st60" d="M105.9,572.2c0.1,0,0.1,0,0.1,0l0,0L105.9,572.2z"/>
							<path class="st60" d="M106.5,539.7C106.5,539.6,106.5,539.6,106.5,539.7C106.4,539.4,106.4,539.5,106.5,539.7z"/>
							<path class="st60" d="M106.5,549.3c0-0.1-0.1-0.2-0.1-0.3C106.3,549.2,106.3,549.3,106.5,549.3z"/>
							<polygon class="st60" points="106.7,528.9 106.7,528.9 106.7,528.9 							"/>
							<path class="st60" d="M106.4,548.6c-0.1,0.2-0.1,0.3,0,0.4C106.4,548.9,106.4,548.7,106.4,548.6z"/>
							<path class="st60" d="M107.4,581.8l0.1,0c0,0,0,0,0-0.1L107.4,581.8z"/>
							<path class="st60" d="M107.6,581.7l0.2-0.1C107.7,581.6,107.7,581.6,107.6,581.7z"/>
							<path class="st60" d="M108.2,581.4l-0.4,0.2C107.9,581.5,108.1,581.5,108.2,581.4z"/>
							<path class="st60" d="M106.7,578.4l-0.1,0C106.6,578.4,106.6,578.4,106.7,578.4z"/>
							<path class="st60" d="M106.5,577.5c0,0.2-0.1,0.5,0,0.8l0.1,0C106.4,578.2,106.7,577.7,106.5,577.5z"/>
							<path class="st60" d="M107.3,574l0,0.7c0.1-0.1,0.2-0.3,0.3,0C107.8,573.8,107.4,574.9,107.3,574z"/>
							<path class="st60" d="M107.3,571.9c0.1,0.4,0.2,0,0.2,0C107.4,571.6,107.3,571.6,107.3,571.9z"/>
							<path class="st60" d="M107.1,556.5l0.3,0C107.3,556.3,107.3,556.6,107.1,556.5z"/>
							<polygon class="st60" points="105.9,553.5 105.8,553.8 106,553.9 							"/>
							<polygon class="st60" points="107.9,551.9 107.9,552 107.8,551.5 							"/>
							<path class="st60" d="M109.2,526l-0.3,0.1C108.9,526.3,109.3,526.3,109.2,526z"/>
							<path class="st60" d="M108.3,514.8c0.1-0.1,0.2-0.5,0.1-0.6C108.4,514.4,108.3,514.6,108.3,514.8z"/>
							<polygon class="st60" points="109.9,481.5 109.9,481.7 109.9,481.3 							"/>
						</g>
					</g>
				</g>
			</g>
		</g>
		<g class="st0">
			<g>
				<g>
					<g>
						<g>
							<path class="st60" d="M184.2,577.9c0.1,0.1,0.3,0.1,0.3-0.1l-0.3-0.2L184.2,577.9z"/>
							<path class="st60" d="M185,576.6c-0.1-0.3-0.4-0.6-0.7-0.5c0.3,0.3,0.1,0.3,0.5,0.6c0,0.2-0.2,0.3-0.3,0.3
								c0.1,0.1-0.1,0.3,0.1,0.4c0.3-0.2,0.3-0.6,0.2-1C184.9,576.5,185,576.6,185,576.6z"/>
							<path class="st60" d="M187.3,556.4l0,0.1C187.2,556.5,187.2,556.4,187.3,556.4z"/>
							<path class="st60" d="M187.4,543.8c0,0.1,0,0.1,0.1,0.1C187.5,543.8,187.5,543.7,187.4,543.8z"/>
							<path class="st60" d="M187.6,541.6c0,0,0,0.1,0,0.1C187.7,541.6,187.7,541.6,187.6,541.6z"/>
							<path class="st60" d="M187.3,556.4l0.1-0.3C187.3,556,187.3,556.2,187.3,556.4z"/>
							<path class="st60" d="M184.6,573.7c0,0.1,0,0.1,0.1,0.2L184.6,573.7L184.6,573.7z"/>
							<path class="st60" d="M187.3,562l0,0.1c0,0,0.1,0.1,0.1,0.1L187.3,562z"/>
							<path class="st60" d="M187,566.2c0-0.1-0.3-0.2-0.4-0.2c0.1,0.1,0.2,0.1,0.2,0.2C186.9,566.3,186.9,566.2,187,566.2z"/>
							<path class="st60" d="M185.8,572.9l0,0.1C185.8,573,185.8,572.9,185.8,572.9z"/>
							<path class="st60" d="M187.5,558.9c0,0,0.1,0,0.1,0C187.6,558.9,187.5,558.9,187.5,558.9z"/>
							<path class="st60" d="M184.2,440.9C184.2,440.9,184.2,440.9,184.2,440.9C184.2,440.8,184.2,440.8,184.2,440.9z"/>
							<path class="st60" d="M186.2,436.1L186.2,436.1c0.1,0.1,0.1,0.1,0.2,0.1L186.2,436.1z"/>
							<path class="st60" d="M187.2,537.4C187.2,537.4,187.2,537.4,187.2,537.4C187.3,537.5,187.3,537.5,187.2,537.4z"/>
							<path class="st60" d="M186.3,502.8c-0.3,0.4-0.2-0.7-0.6-0.1C185.9,502.7,186.1,503.3,186.3,502.8z"/>
							<path class="st60" d="M184.6,573.6c0-0.1,0-0.1,0-0.2C184.6,573.5,184.6,573.6,184.6,573.6z"/>
							<path class="st60" d="M185.7,502.7L185.7,502.7L185.7,502.7C185.7,502.7,185.7,502.7,185.7,502.7z"/>
							<path class="st60" d="M183.9,529.1c0,0-0.1,0.1-0.1,0.1C183.8,529.2,183.8,529.1,183.9,529.1z"/>
							<path class="st60" d="M185.9,535.3l0-0.2C185.8,535.2,185.9,535.3,185.9,535.3z"/>
							<path class="st60" d="M182.9,525.8c0-0.1,0.1-0.1,0-0.2c0,0,0,0,0,0C183,525.7,183,525.7,182.9,525.8z"/>
							<path class="st60" d="M182.8,522.3C182.8,522.3,182.8,522.3,182.8,522.3c-0.1,0.1-0.1,0.1,0,0.2L182.8,522.3z"/>
							<path class="st60" d="M183.7,452.1c0.1-0.1,0.2-0.1,0.3-0.2C183.8,451.9,183.7,451.4,183.7,452.1z"/>
							<path class="st60" d="M184.7,573.7c-0.1,0-0.1-0.1-0.1-0.1l0,0.1C184.7,573.7,184.7,573.7,184.7,573.7z"/>
							<path class="st60" d="M180.7,525.9l0-0.6C180.7,525.4,180.7,525.7,180.7,525.9z"/>
							<path class="st60" d="M184.9,478.2l0-0.1C184.8,478.1,184.8,478.2,184.9,478.2z"/>
							<path class="st60" d="M180.6,523.5c0.1-0.1,0.2-0.2,0.2-0.3c0,0,0-0.1-0.1-0.1L180.6,523.5z"/>
							<path class="st60" d="M184,451.9L184,451.9L184,451.9z"/>
							<path class="st60" d="M183.4,448c0,0.6,0.3,0.3,0.6,0.4c0.1,0.7-0.3,0.3-0.5,0.5c0.1,0.4,0.4,0.7,0.4,1.1
								c-0.1,0-0.1,0.1-0.2,0c0.3,0.4,0,1.3,0.4,1.8c0,0-0.1,0.1-0.1,0.1c0.2-0.1,0.4-0.1,0.5-0.1c0,0.2,0.2,0.5,0,0.6
								c0-0.2-0.1-0.2-0.2-0.2l0.1,0.3c-0.3,0.2-0.1-0.4-0.4-0.4c0.1,0.5,0.4,1.1,0.3,1.5c-0.3,0.1-0.1-0.9-0.4-0.4l0.1-0.6
								c-0.5,0.5,0-0.4-0.5,0.1c-0.1,0.8,0.2,0.9,0.1,1.7c0.2,0.2,0.3-0.1,0.5,0.1c0.4,1.1-0.8,0.9-0.4,1.7c0.2,0.2,0.7,0.3,0.4,0.9
								l-0.4-0.2c0,0.8,0.6,0.4,0.3,1.2c-0.2-0.1-0.1-0.6-0.2-0.5c-0.3,0.5,0.2,0.4,0.2,0.8l-0.3,0.1c0.1,0.8,0.4,1.7,0.5,2.6
								c-0.1,0-0.2-0.2-0.3,0c0.2,1.1,0.1,2.4-0.1,3.5l0.3,0.4c0,0.1-0.1,0.2-0.2,0.1c-0.1,0.4,0.2,0,0.3,0.2c0,0.2-0.2,0.3-0.2,0.2
								c0.3,0.7,0.7,2.1,0.4,2.9l-0.1-0.1c-0.1,0.6,0.6,0.7,0.4,1.3l-0.1-0.1c-0.1,1.3,0.3,2.8-0.1,3.9c0.4,0.2-0.1,1.3,0.5,1.4
								c-0.3,0.8-0.4,0.6-0.5,1.6c0,0.3,0.4,0.4,0.5,0.8l-0.3,0l0.3,0.5l-0.4,0.3l0.1,0.3c0-0.1,0.1-0.3,0.2-0.3
								c0.2,0.5-0.2,1.3-0.3,1.3l0.3,1.2c-0.1,0-0.2-0.2-0.3-0.4c0.3,0.6-0.3,0.1,0,0.7c0.1-0.1,0.2,0,0.2,0c-0.2,0.3-0.2,1-0.1,1.5
								l-0.2-0.1c0,0.9,0.1,1.9,0.2,2.9c0.1-0.4,0.5-0.3,0.5,0l-0.3,0.1c0.2,0.2,0.1-0.3,0.4,0.1c0,0.4-0.4,0.3-0.5,0l0.1,0.5
								c-0.1,0-0.1-0.1-0.3-0.1c0.2,0.2-0.3,0.8,0,1.1l-0.1,0c0,1,0.1,1.5,0.1,2.3c0.3,0,0.2,0.3,0.4,0.6c-0.1,0.6-0.3,1.3-0.3,2
								c0.1,0.5,0.2,0.2,0.4,0.4c-0.3,0-0.3,0.8-0.4,0.4c0,0.9,0,1.1,0.1,2.2c0.1-0.1,0.2-0.2,0.2-0.2c0,0.2-0.1,0.5-0.3,0.4l0-0.1
								c0.3,1.3-1,2.8-0.5,3.8l0-0.1l0.2,1.1c-0.1,0.5-0.2-0.3-0.4,0c0.3,1.2-0.3,1.7-0.2,2.7c-0.4,0.3-0.5,0.9-0.5,1.6
								c-0.1,0.7-0.1,1.3-0.4,1.8l0.2,0c0.1,0.3-0.2,0.3-0.2,0.4c0.1,0,0.2-0.2,0.3-0.1c-0.2,2.1-1.1,4.2-1.7,6.3
								c-0.2,0.8,0.8,0.6,0.2,1.5l-0.3-0.3c0.1,1.7-0.6,3.3-0.4,4.9c-0.1-0.1-0.2-0.1-0.1-0.3c-0.3,0.3-0.2,1.2,0,1.3
								c0,0.2-0.2,0-0.3,0.2c-0.2,0.3,0.2,0.9,0,1c0,0-0.1-0.1-0.1-0.2c0.1,0.2-0.1,1,0.2,0.8c-0.1,0.6,0.1,1.2-0.1,1.7
								c0.3,0.3-0.1,1.1,0.3,1.1c-0.5,0-0.3,1.1-0.1,1.5c-0.1-0.1-0.1,0.3-0.3,0.2c0,0.4,0.2,0.8,0.4,0.7c-0.4,0.9,0.7,1.6,0.1,2.1
								c0.3,0.6,0.5,1.2,0.8,1.8c0.3,0.6,0.5,1.1,0.8,1.6c-0.5,0.1-0.5-1.2-0.9-1c0.5,1,1.1,1.5,1.5,2.5c0.1,0.3-0.2-0.1-0.4-0.1
								c0.6,0.9,0.8,1.9,1.4,2.7c0,0-0.1-0.1-0.2-0.1c0.1,0.2,0.1,0.4,0.3,0.3l-0.1-0.1c0.2-0.4,0.8,0.4,1,0.4
								c-0.7-0.1,0.2,0.9-0.7,0.7c0.1,0.1,0.2,0.2,0.3,0.1c0,0.2,0,0.3-0.2,0.1c0.3,0.6,0.4,0.3,0.6,0.9c-0.1,0-0.2-0.1-0.3-0.1
								c0.3,0.2,0.5,0.5,0.5,1c-0.1,0-0.1,0.1-0.2-0.1c0.2,0.8,0.8,1.4,0.7,2.3c-0.5-0.2-0.1,0.3-0.5,0.4l0.2,0.5l0.2-0.2
								c0,0.4,0.3,0.8,0.2,1.2l-0.2-0.3l0.1,0.8l0.1-0.5c0.2,0.5,0.5-0.1,0.4,0.5c0-0.1,0,0.5-0.2,0.7l0,0c0.1,0.2,0.3,0.5,0.2,0.8
								c-0.1,0.1-0.4-0.1-0.5,0c0.3,0.2,0.1,1.1,0.4,1.3c-0.1-0.1-0.3-0.1-0.3-0.1l0.3,0.2c-0.1,0.2-0.1,0.2-0.3,0.2
								c0,0.6,0.5-0.2,0.3,0.6c0-0.1-0.1,0-0.1-0.2c-0.1,0.8,0.2,1.5,0,2.2c-0.4,0.2-0.1-0.6-0.4-0.4c0.1,1,0.4,2.1,0.3,3.1l0-0.2
								c0.5,0.1-0.3,0.7,0,1.2c0-0.1-0.3-0.2-0.2-0.1c-0.1,0.7,0.1,1.4,0.2,2.4l-0.1-0.1c-0.1,0.4-0.1,1-0.2,1.5
								c0.1,0.1,0.1,0.4,0.3,0.2c-0.8,1.3,0.3,2.5-0.4,3.6c0-0.1-0.1-0.3-0.1-0.2l0.1,1c0.2-0.1,0.1-0.1,0.3-0.3
								c0.1,0.1,0.2,0.4,0.2,0.7c-0.1-0.5-0.4,0-0.5,0.2c0.1,0,0.1,0,0.2,0c-0.4,0.5,0.5,0.1,0.1,0.8l-0.1,0c0,0.3,0.2,0.5,0.1,0.8
								c-0.3,0.1-0.1-0.3-0.3-0.3c0,0.4,0.4,0.8,0.2,1.2c-0.1-0.2,0-0.4-0.1-0.6c-0.3,0.4-0.3,0.4-0.3,0.7l0,0l-0.2,0.7l0.1-0.2
								c0.7,0.6,0,1,0.4,1.7c-0.4-0.7-0.2-0.1-0.5-0.2c-0.1,0.2-0.2,0.4-0.3,0.3c0.2,0.3-0.2,0.5,0.1,1c-0.1,0,0,0.3-0.3,0.2
								c0,0.4,0.2-0.1,0.3,0c0.3,0.7-0.5,1.5-0.2,2.4c0.1,0.8,0.4,1,0.5,1.7c-0.2,0.2-0.3-0.2-0.3-0.2c-0.2,0.4-0.2,0.7-0.1,1.1
								c-0.1-0.1-0.2,0-0.3,0.1c0,0.3,0.3,0.2,0.1,0.6c-0.1-0.1-0.3-0.2-0.3-0.3c0,0.4,0.2,0.7,0.2,1.1c-0.2,0.1-0.2-0.3-0.3-0.4
								c0,0.4,0,1.1,0.3,1.3l0.1-0.3c0,0.2-0.2,0-0.3-0.1c-0.2-0.4,0.2-0.5,0.3-0.5l0,0.3c0.6-0.2,0-1.1,0.1-1.6l0.4,0.3l-0.3-0.6
								c0.1-0.1,0.4-0.2,0.4,0.1c0.2-0.4-0.1-0.4,0.2-0.7c0,0,0.1,0,0.1,0l-0.1-0.4c0.1,0.1,0.3,0,0.2,0.2c0.3-0.6-0.2-1.1,0.2-1.3
								l0,0.1c0-0.9-0.3-0.1-0.6-0.9l0.8-0.4l-0.3-0.1c0-0.1,0.1-0.3,0.2-0.2c-0.2-0.4-0.1,0-0.3-0.2c0.3-0.4,0-1.3,0.5-1.3
								c-0.2-0.2-0.2,0.4-0.3-0.1c0.5-0.1,0-0.6,0.2-1c0.3,0.2,0.1,0.5,0.4,0.1c-0.4-0.3,0.2-0.8,0.1-1.2c-0.4,0-0.1-0.8-0.2-1.4
								c0.1,0,0.3-1.1,0.5-1.7l0.1,0c-0.4-0.1-0.3-0.7-0.3-1.1c0.2,0,0.3,0.1,0.4,0.3l0-0.4c-0.1-0.1-0.2-0.2-0.2-0.5l0.3,0.1
								c0-0.5-0.3-1.1,0-1.7c-0.3-0.1-0.7,0.5-0.9-0.2c0.1,0,0.4,0,0.4,0.2c0-0.1-0.1-0.2,0-0.3l0.2,0.3c0.1-0.3-0.2-0.2-0.2-0.4
								c0.2,0,0.1-0.2,0.3-0.1c0,0.1-0.1,0.2,0,0.3c0-0.3,0.2-0.6,0.3-0.7c-0.1,0-0.3,0-0.3-0.2c0-0.5,0.2-0.2,0.4-0.5
								c-0.1-0.1,0-0.5-0.3-0.5c0-0.2,0.1-0.2,0.2-0.2c-0.1-0.3,0-1.3-0.3-1l0,0.1c0,0,0,0,0,0l0,0l0,0c-0.3-0.9,0.2-1.8,0.1-2.7
								l0.1,0c-0.1-0.5,0-1.2-0.3-1.5c0-0.2,0.2-0.4,0.3-0.3c-0.1-0.4-0.2-0.4,0-1c0.2,0.4,0.2-0.1,0.1,0.4c0.1-0.5,0.2-0.6,0-1.2
								c0.3,0.2,0.3-0.4,0.2-0.6l-0.2,0.4c0-0.3,0-0.5,0-0.8l0.3,0.1c0.4-1.1-0.7-1.9,0-2.7c-0.2-0.3-0.2,0.6-0.4,0.3
								c0-0.5,0.5-1,0.5-1.2c0.2-0.7-0.5-0.6-0.4-1.3c-0.1,0.1-0.4,0.2-0.6-0.3c0-0.5,0.5-0.6,0.6-0.3c0,0.1,0,0.2-0.1,0.2
								c0,0.2,0.1,0.4,0.2,0.2l-0.1-0.1c0.1-0.3,0.1-0.9,0.3-0.8c-0.1-0.4-0.2-0.1-0.2,0.1c0.1-0.7-0.1-1,0-1.7
								c-0.1,0.1-0.2,0.2-0.2,0.1c0-1-0.3-0.4-0.4-1c0.1-0.4,0.5,0.1,0.2-0.6c0.1-0.4,0.3-0.1,0.4,0c-0.3-0.6-0.1-1.2-0.1-1.5
								l0.2,0.3c-0.1-0.2-0.1-0.3-0.2-0.5l-0.2,0.2c0-0.2,0-0.4,0.1-0.4c-0.2-0.2-0.3,0.2-0.6-0.1c0.1-0.3-0.3-0.7-0.1-0.9
								c0.1,0.8,0.3-0.2,0.5,0.5c-0.1-0.1-0.1-0.3-0.1-0.5c0,0,0.1,0,0.1,0.1c0-0.8-0.4-0.2-0.7-1c0.2,0,0.3-0.3,0.2-0.4
								c0.1,0.3-0.2,0.2-0.5,0c-0.1-0.5-0.3-0.5-0.4-0.7l0.1,0.3c-0.2,0-0.3-0.3-0.5-0.6c0.1-0.1,0.2,0.2,0.2,0.1
								c-0.4-0.2,0-0.9-0.5-1.3c0-0.3,0.3-0.2,0.3-0.4c-0.4-0.4,0-0.7-0.4-1.2c-0.1,0.3-0.1,0.3-0.5,0l0.5,0.9l-0.6-0.5
								c0.1,0.3,0.4,0.5,0.4,0.7c-0.3-0.2-0.2-0.2-0.4,0c0.2-0.5-0.5-0.7-0.5-1.2l0.6-0.2c0-0.7-0.7-1-0.9-2l0,0.3
								c-0.3,0-0.2-0.5-0.4-0.8c0.2,0,0.2-0.2,0.3-0.4c-0.1,0-0.1-0.6-0.5-0.6l0.2-0.4c0-0.7-0.7-0.7-0.7-1.5
								c0.2,0.2,0.3-0.2,0.6,0.3c0-0.2,0-0.4-0.2-0.4c0.1-0.1-0.3-0.6-0.2-0.9c-0.1-0.1-0.3-0.1-0.3-0.4c0,0,0.1,0,0.1,0
								c-0.1,0-0.2-0.4-0.4-0.2c0.6-0.8-0.1-2.1,0.4-2.7c-0.1-0.5-0.1-1.2-0.1-1.6c0.1,0,0.1,0,0.1,0.1c0.2-0.6-0.5-0.5-0.3-1.2
								c0.4-0.4,0.1,0.4,0.3,0.2c0.6,0,0-0.9,0.4-1.4l0,0.1c0.3-0.4-0.1-1,0-1.6c0,0,0.1,0,0.1,0c-0.3-0.5-0.2-1.3-0.2-1.9
								c0.2,0.2,0.1,0.3,0.4,0.2c0-0.3-0.4,0-0.4-0.5c0.2-0.2,0.4-0.5,0.6-0.5l-0.1,0.5c0.4-0.2,0.1-0.7,0.2-0.9l0.1,0.1
								c0.1-0.8-0.3-0.9-0.1-1.7l-0.1,0.1c-0.3-0.5,0.3-0.3,0.1-0.9l0.4-0.1c0-0.3-0.2-1.1-0.1-1.7c0.2,0.4,0.2,1,0.3,1.5
								c0.1-0.3,0.2-1,0-1.2c0,0.1,0.1,0.3,0,0.4c-0.2-0.4-0.3-0.9-0.1-1.5c0.7,0.3,0.5-1.5,1.2-1.8c-0.1-1.1,0.5-2.1,0.7-3.4
								c-0.7,0.4,0-0.4-0.6-0.4c0-0.3,0-0.4,0.1-0.4l0.5-0.8c0.2-0.2,0.1,0.3,0.2,0.3c0.1-0.6,0.3-0.2,0.5-0.6
								c-0.2,0.1-0.3-0.3-0.1-0.6l-0.4,0.5c-0.2-0.9,0.6-0.7,0.4-1.7l0.2,0.3c-0.1-0.5,0.2-1.7-0.3-2.2c0.1-0.1,0.3-0.2,0.3,0
								c0.1-0.6,0-1.2,0-1.8c-0.1-0.6-0.1-1.2,0.1-1.6l0.1,0.1c0-0.2-0.3-0.4-0.1-0.6c0.1,0,0.1,0.1,0.2,0c0-0.1-0.2-0.6-0.1-0.8
								l0.2,0.2c0.3-1.1-0.3-1.7-0.4-2.6c0.4,0,0.6-0.8,0.7-1.3l0.1,0c0.1-1.3-0.3-2.2-0.5-3.3c0.5-0.7,0.2-2.5,0.4-3.6
								c-0.1,0.2-0.3,0-0.4-0.2c0.1-0.3-0.3-0.7,0.1-0.7l0,0.1c0.4-0.2,0.3-0.8,0.3-1.2l-0.5-0.1c0.7-1.2-0.4-3,0.3-3.7
								c-0.1-0.3-0.2-0.6-0.3-0.9l0.3,0c0-0.8,0.1-1.2-0.1-2.1l0.2,0.2c0-0.5-0.9-0.6-0.9-1.1l0.4-0.2c-0.1-0.9,0.3-1.9-0.2-2.8
								c0.1,0,0.2,0,0.2,0.2c0-0.4,0.2-1.7-0.4-1.5c0.4,0,0-1-0.2-1.5l0.3,0.1c-0.4-0.4-0.5-0.4-0.6-1c0-0.1,0.2-0.1,0.2,0.1
								c0.1-0.5-0.3-0.3-0.2-0.9l0.2,0.2c0-0.5-0.1-0.4-0.3-0.7c-0.1-0.3,0-0.9,0.3-1c-0.2-0.1-0.4-0.3-0.3-0.6
								c0.1,0,0.2,0.1,0.2,0.1c0.1-0.8-0.4-1.2-0.1-1.7c0.1,0,0.1-0.1,0.2-0.1c0,0.6,0,1.2,0,1.1c0.3,0,0.3-0.5,0.7-0.1
								c-0.2-0.4-0.7-1.1-0.6-1.6c0,0,0-0.1,0.1-0.1l0,0.1c0-0.1,0-0.2-0.1-0.3c0-0.2,0.1-0.3,0.1-0.4c0.2-0.1,0.1-0.6,0.1-0.9
								c-0.3,0-0.2-0.3-0.5,0c0,0,0,0,0.1,0.2c0,0,0,0.1,0,0.1l0,0c0,0.2,0,0.4,0,0.6c-0.2-0.2-0.3-0.4-0.1-0.7
								c-0.2-0.1-0.4-0.3-0.5-0.3c0.4-0.4,0.6-1,0.8-1.2c-0.2-0.8-0.1-1.8-0.7-2.3c-0.1-0.2,0.1-0.3,0.2-0.3c0.1,0.1,0,0.3,0.1,0.3
								c-0.1-0.4-0.1-1.3-0.4-1.4c0.2-0.6,0.3,0.3,0.3-0.5l0.1,0.1c0.6-1.5-0.9-2.5-0.2-4.1c0,0.1-0.1,0.2-0.1,0.2
								c0.2-1,0.1-1.9,0.1-2.9c0-1,0-2,0.3-2.9c0.2-0.5-0.1-0.6-0.2-0.9l0.3-0.1l-0.3-0.6c-0.2-0.8,0.8-1.3,0.5-2.3l-0.2,0.1
								c0.1-0.4,0-1.1,0.3-1.1c0,0-0.2-0.1-0.1-0.3l0.2,0l-0.1-0.9c0.2-0.7,0.6,0.2,0.8-0.8c0-0.4-0.3-1.1-0.4-1
								c0,0.1-0.2,0.4-0.3,0.4l0-0.4c-0.5-0.1-0.9-0.5-1.3,0.3l0.2,0.6l-0.2,0.2l0.1-0.5c-0.2,0.2-0.1,0.5,0,0.7
								c-0.1,0-0.2,0.1-0.3,0.2l0.4,0.6c-0.2,0-0.3-0.3-0.5,0.1c0.2,0.3,0.4-0.2,0.5,0.3c-0.2,0.3-0.4,0.1-0.3,0.5
								c-0.1,0-0.2,0-0.2-0.2c0.1,0.3,0,0.8,0.2,1c-0.3,0.3,0,1-0.5,0.9c0.1,0.1,0.3,0.6,0.3,0.8c-0.5-0.5-0.1,1-0.7,0.8
								c0.4,0.4,0.1,1.3,0.3,2c0,0-0.1-0.1-0.1-0.2c-0.1,0.4-0.2,0.5-0.3,0.7c0.4,0.1,0.5,0.6,0.7,1c-0.4,0.4-0.4-0.3-0.8-0.2
								c0.3,0,0.3,0.8,0.6,0.7c-0.2,0.3-0.1,0.3-0.5,0.5c0.5,0.1,0.1,0.3,0.4,0.6c-0.3,0.5-0.5,0.1-0.3,0.7
								C183.5,448.5,183.4,448,183.4,448z M184.3,461L184.3,461c0-0.1,0-0.2,0-0.3C184.3,460.8,184.3,460.9,184.3,461z M184.4,462.1
								c0-0.1,0-0.3,0-0.5c0.1,0,0.2,0,0.2,0.1C184.5,461.6,184.5,461.9,184.4,462.1z M186.3,459.7c0,0.2,0,0.2-0.1,0.3
								c0-0.1,0-0.2,0-0.3l0,0C186.2,459.7,186.2,459.7,186.3,459.7z"/>
							<path class="st60" d="M185.9,459.4C185.9,459.4,185.9,459.4,185.9,459.4C185.8,459.4,185.8,459.4,185.9,459.4L185.9,459.4
								C185.9,459.5,185.9,459.4,185.9,459.4z"/>
							<path class="st60" d="M187.2,556.5L187.2,556.5C187.2,556.5,187.2,556.6,187.2,556.5C187.2,556.5,187.2,556.6,187.2,556.5z"
								/>
							<polygon class="st60" points="184.7,477 184.7,477 184.7,476.9 							"/>
							<path class="st60" d="M185.9,562.4C185.9,562.5,185.9,562.5,185.9,562.4C185.9,562.5,185.9,562.5,185.9,562.4z"/>
							<path class="st60" d="M185.7,565l-0.1,0.4C185.6,565.2,185.7,565.1,185.7,565z"/>
							<path class="st60" d="M185.4,567c0,0,0.1,0,0.1,0l0,0L185.4,567z"/>
							<path class="st60" d="M184.2,536.2C184.2,536.1,184.2,536.1,184.2,536.2C184,536,184.1,536.1,184.2,536.2z"/>
							<path class="st60" d="M186.4,544.9c-0.1-0.1-0.1-0.2-0.1-0.3C186.3,544.8,186.3,544.9,186.4,544.9z"/>
							<polygon class="st60" points="180.7,525.9 180.7,525.9 180.7,525.9 							"/>
							<path class="st60" d="M186.3,544.2c0,0.2,0,0.3,0,0.4C186.3,544.5,186.3,544.3,186.3,544.2z"/>
							<path class="st60" d="M184.3,575.4L184.3,575.4c0,0.1,0,0.1,0,0.1L184.3,575.4z"/>
							<path class="st60" d="M184.4,575.6l0,0.1C184.4,575.6,184.4,575.6,184.4,575.6z"/>
							<path class="st60" d="M184.4,575.9l0-0.2C184.4,575.7,184.3,575.8,184.4,575.9z"/>
							<path class="st60" d="M184.8,572.9L184.8,572.9C184.7,572.8,184.7,572.9,184.8,572.9z"/>
							<path class="st60" d="M184.9,572.1c0,0.2-0.3,0.4-0.2,0.7l0.1,0C184.6,572.7,185,572.3,184.9,572.1z"/>
							<path class="st60" d="M186.5,568.9l-0.1,0.7c0.1-0.1,0.3-0.2,0.3,0.1C187,568.8,186.3,569.8,186.5,568.9z"/>
							<path class="st60" d="M186.8,566.9c0,0.4,0.2,0,0.2,0C186.9,566.7,186.9,566.6,186.8,566.9z"/>
							<path class="st60" d="M187.5,551.9l0.3,0C187.8,551.6,187.7,551.9,187.5,551.9z"/>
							<polygon class="st60" points="186.2,549 186.1,549.3 186.3,549.4 							"/>
							<polygon class="st60" points="188,547.3 188.1,547.4 188,546.9 							"/>
							<path class="st60" d="M183.1,522.9l-0.3,0.1C182.8,523.2,183.2,523.2,183.1,522.9z"/>
							<path class="st60" d="M184.1,512.3c0.2-0.1,0.3-0.4,0.2-0.6C184.3,512,184.1,512.2,184.1,512.3z"/>
							<polygon class="st60" points="187.3,479.8 187.4,480 187.3,479.6 							"/>
						</g>
					</g>
				</g>
			</g>
		</g>
		<g class="st0">
			<g>
				<g>
					<g>
						<g>
							<path class="st60" d="M184.1,596.9c0.1-0.1,0.1-0.3-0.1-0.3l-0.1,0.3L184.1,596.9z"/>
							<path class="st60" d="M183.4,596.2c-0.2,0.1-0.3,0.4-0.3,0.7c0.2-0.3,0.2-0.2,0.4-0.5c0.1,0,0.2,0.1,0.1,0.2
								c0.1-0.1,0.2,0.1,0.3-0.1c-0.1-0.3-0.3-0.3-0.5-0.1C183.3,596.3,183.4,596.2,183.4,596.2z"/>
							<path class="st60" d="M172.3,595.6L172.3,595.6C172.4,595.6,172.4,595.6,172.3,595.6z"/>
							<path class="st60" d="M165.5,596.7C165.5,596.7,165.6,596.7,165.5,596.7C165.5,596.7,165.5,596.7,165.5,596.7z"/>
							<path class="st60" d="M164.3,596.7C164.3,596.7,164.3,596.7,164.3,596.7C164.3,596.6,164.3,596.6,164.3,596.7z"/>
							<path class="st60" d="M172.3,595.6l-0.2-0.1C172.1,595.6,172.2,595.6,172.3,595.6z"/>
							<path class="st60" d="M181.8,596.8c0,0,0.1,0,0.1-0.1C181.9,596.7,181.9,596.7,181.8,596.8L181.8,596.8z"/>
							<path class="st60" d="M175.4,595.1L175.4,595.1c0.1,0,0.1-0.1,0.1-0.1L175.4,595.1z"/>
							<path class="st60" d="M177.7,595c-0.1,0-0.1,0.3-0.1,0.4c0-0.1,0.1-0.2,0.1-0.2C177.7,595.1,177.7,595.1,177.7,595z"/>
							<path class="st60" d="M181.4,595.6L181.4,595.6C181.5,595.6,181.4,595.6,181.4,595.6z"/>
							<path class="st60" d="M173.7,595.1C173.7,595.1,173.7,595.1,173.7,595.1C173.6,595.1,173.7,595.1,173.7,595.1z"/>
							<path class="st60" d="M110.1,596.6C110.1,596.6,110.1,596.5,110.1,596.6C110.1,596.5,110.1,596.6,110.1,596.6z"/>
							<polygon class="st60" points="108,594.4 108,594.4 108.1,594.2 							"/>
							<path class="st60" d="M162.3,596.7L162.3,596.7C162.4,596.6,162.4,596.6,162.3,596.7z"/>
							<path class="st60" d="M143.3,596.5c0.3,0.2-0.2,0.4,0.1,0.6C143.4,597,143.6,596.6,143.3,596.5z"/>
							<path class="st60" d="M181.8,596.8C181.7,596.8,181.7,596.8,181.8,596.8C181.7,596.8,181.7,596.8,181.8,596.8z"/>
							<path class="st60" d="M143.4,597.1L143.4,597.1L143.4,597.1C143.5,597.1,143.4,597.1,143.4,597.1z"/>
							<path class="st60" d="M158.3,595.5c0,0,0,0.1,0,0.1C158.3,595.6,158.3,595.6,158.3,595.5z"/>
							<path class="st60" d="M161.3,597.2L161.3,597.2C161.3,597.2,161.3,597.2,161.3,597.2z"/>
							<path class="st60" d="M156.2,595.2c0,0-0.1-0.1-0.1-0.1c0,0,0,0,0,0C156.1,595.1,156.2,595.1,156.2,595.2z"/>
							<path class="st60" d="M154.2,594.7C154.2,594.7,154.2,594.8,154.2,594.7L154.2,594.7L154.2,594.7z"/>
							<path class="st60" d="M116.2,597.7c0-0.1-0.1-0.2-0.1-0.3C116.2,597.6,115.9,597.7,116.2,597.7z"/>
							<path class="st60" d="M181.8,596.6c0,0.1,0,0.1-0.1,0.1l0.1,0C181.8,596.7,181.9,596.7,181.8,596.6z"/>
							<path class="st60" d="M155.5,597.3l-0.3-0.1C155.3,597.2,155.4,597.3,155.5,597.3z"/>
							<path class="st60" d="M130.7,597.1L130.7,597.1C130.6,597.2,130.6,597.2,130.7,597.1z"/>
							<path class="st60" d="M154.4,597c0-0.1-0.1-0.2-0.1-0.2c0,0,0,0,0,0.1L154.4,597z"/>
							<path class="st60" d="M116.2,597.4L116.2,597.4L116.2,597.4z"/>
							<path class="st60" d="M114,597.8c0.3,0.1,0.2-0.3,0.3-0.5c0.4,0,0.1,0.3,0.2,0.5c0.2-0.1,0.5-0.4,0.6-0.3c0,0.1,0,0.1,0,0.2
								c0.3-0.3,0.7,0.1,1-0.2c0,0,0,0.1,0,0.1c0-0.2,0-0.4,0-0.5c0.1,0,0.3-0.2,0.3,0c-0.1,0-0.1,0.1-0.1,0.1l0.2-0.1
								c0.1,0.4-0.2,0.1-0.2,0.3c0.3-0.1,0.6-0.3,0.9-0.2c0,0.3-0.5,0.1-0.3,0.4l-0.3-0.2c0.2,0.6-0.2-0.1,0,0.5
								c0.4,0.2,0.5-0.1,0.9,0c0.1-0.2,0-0.3,0.1-0.5c0.6-0.3,0.4,0.9,0.9,0.5c0.1-0.2,0.2-0.6,0.5-0.4l-0.1,0.4
								c0.4,0.1,0.3-0.5,0.7-0.3c-0.1,0.1-0.3,0.1-0.3,0.2c0.3,0.3,0.2-0.2,0.4-0.2l0,0.3c0.5,0,1-0.3,1.5-0.3c0,0.1-0.1,0.2,0,0.3
								c0.6-0.2,1.4,0,2,0.2l0.2-0.3c0.1,0,0.1,0.1,0.1,0.2c0.2,0.1,0-0.2,0.1-0.3c0.1,0,0.2,0.2,0.1,0.2c0.4-0.3,1.1-0.6,1.6-0.4
								l-0.1,0.1c0.4,0.1,0.3-0.6,0.7-0.4l-0.1,0.1c0.7,0,1.5-0.3,2.1,0.1c0.1-0.4,0.7,0.1,0.7-0.5c0.4,0.2,0.3,0.4,0.9,0.5
								c0.2,0,0.2-0.4,0.4-0.5l0,0.3l0.2-0.3l0.2,0.4l0.2-0.1c-0.1,0-0.2-0.1-0.2-0.2c0.3-0.2,0.7,0.2,0.7,0.3
								c0.2-0.1,0.4-0.2,0.6-0.3c0,0.1-0.1,0.2-0.2,0.2c0.3-0.3,0.1,0.3,0.4,0c0-0.1,0-0.2,0-0.2c0.2,0.2,0.5,0.2,0.8,0.1l-0.1,0.2
								c0.5,0.1,1-0.1,1.5,0c-0.2-0.1-0.1-0.5,0.1-0.5l0,0.3c0.1-0.2-0.1-0.1,0.1-0.4c0.2,0.1,0.1,0.4,0,0.5l0.2-0.1
								c0,0.1-0.1,0.1-0.1,0.3c0.1-0.2,0.3,0.4,0.5,0.1l0,0.1c0.5,0.1,0.7,0,1.1,0.1c0.1-0.3,0.2-0.2,0.4-0.3
								c0.3,0.2,0.5,0.5,0.9,0.6c0.3,0,0.2-0.2,0.3-0.3c-0.1,0.2,0.3,0.4,0,0.5c0.5,0.1,0.6,0.2,1.3,0.2c0-0.1-0.1-0.2,0-0.3
								c0.1,0,0.2,0.2,0.2,0.3l0,0c0.4-0.1,0.8,0.2,1.2,0.5c0.4,0.3,0.9,0.4,1.2,0.2l0,0c0.2-0.1,0.5-0.2,0.7-0.3
								c0.3,0-0.2,0.2,0.1,0.3c0.7-0.5,1.1-0.1,1.6-0.6c0.7,0.6,1.4-0.5,2.1-0.3l-0.1-0.2c0.1-0.2,0.2,0,0.3,0
								c-0.1-0.1-0.2-0.1-0.2-0.2c1-0.7,2.2-0.7,3.3-0.7c0.4,0,0-1,0.6-0.6l-0.1,0.3c0.7-0.5,1.6-0.2,2.4-0.5c0,0.1,0,0.2-0.1,0.2
								c0.2,0.2,0.6,0,0.6-0.2c0.1,0,0,0.2,0.1,0.3c0.2,0.2,0.4-0.3,0.5,0c0,0-0.1,0.1-0.1,0.1c0.1-0.1,0.5,0.1,0.4-0.2
								c0.3,0.2,0.6,0,0.8,0.2c0.2-0.3,0.5,0.2,0.6-0.2c-0.1,0.4,0.4,0.5,0.7,0.3c-0.1,0.1,0.1,0.2,0,0.3c0.2,0.1,0.4,0,0.4-0.2
								c0.2,0.6,0.9-0.1,0.8,0.6c0.7,0,1.3,0.2,1.9,0.3c-0.2,0.4-0.6-0.3-0.8,0.2c0.6,0.1,1.1-0.1,1.6,0.3c0.1,0.1-0.2,0.1-0.2,0.2
								c0.7,0.1,1.2,0.5,1.9,0.3c0,0-0.1,0.1-0.1,0.1c0.1,0,0.3,0.1,0.3-0.1l-0.1,0c-0.1-0.3,0.5-0.6,0.5-0.7
								c-0.2,0.6,0.6,0.2,0.3,0.9c0.1,0,0.2-0.1,0.2-0.3c0.1,0,0.2,0.1,0,0.3c0.4-0.1,0.3-0.3,0.6-0.4c0,0.1-0.1,0.1-0.1,0.3
								c0.2-0.2,0.3-0.4,0.6-0.4c0,0.1,0,0.1,0,0.1c0.5-0.1,0.7-0.7,1.3-0.6c0,0.5,0.2,0.1,0.3,0.4l0.3-0.2l-0.2-0.1
								c0.2-0.1,0.4-0.4,0.6-0.3l-0.1,0.2l0.4-0.2l-0.3-0.1c0.2-0.2-0.1-0.4,0.2-0.4c-0.1,0.1,0.2-0.1,0.4,0.1l0,0
								c0.1-0.1,0.2-0.3,0.4-0.3c0.1,0.1,0.1,0.4,0.1,0.5c0-0.3,0.5-0.2,0.6-0.6c0,0.1,0,0.3,0,0.3l0-0.3c0.1,0.1,0.2,0.1,0.2,0.2
								c0.3,0-0.2-0.4,0.2-0.3c0,0,0,0.1-0.1,0.1c0.4,0,0.7-0.3,1.1-0.3c0.2,0.3-0.3,0.2-0.1,0.4c0.5-0.2,1-0.6,1.6-0.6l-0.1,0
								c0-0.5,0.4,0.2,0.7-0.1c-0.1,0,0,0.3,0,0.2c0.4,0,0.7-0.2,1.2-0.5l-0.1,0.1c0.2,0.1,0.6,0,0.8,0c0.1-0.1,0.2-0.1,0.1-0.3
								c0.8,0.7,1.3-0.5,2,0.1c-0.1,0-0.2,0.1-0.1,0.1l0.5-0.2c-0.1-0.2-0.1-0.1-0.2-0.3c0.1-0.1,0.2-0.3,0.3-0.3
								c-0.2,0.2,0,0.4,0.1,0.5c0-0.1,0-0.1,0-0.2c0.3,0.4,0-0.5,0.4-0.2l0,0.1c0.1-0.1,0.3-0.2,0.4-0.2c0.1,0.3-0.2,0.1-0.2,0.3
								c0.2,0,0.4-0.5,0.6-0.3c-0.1,0.1-0.2,0.1-0.3,0.2c0.2,0.3,0.2,0.2,0.4,0.3l0,0l0.4,0.1l-0.1-0.1c0.3-0.7,0.6-0.1,0.9-0.6
								c-0.4,0.4-0.1,0.3-0.1,0.6c0.1,0.1,0.2,0.2,0.2,0.3c0.2-0.2,0.3,0.2,0.5-0.2c0,0.1,0.2,0,0.1,0.3c0.2-0.1,0-0.2,0-0.3
								c0.4-0.3,0.8,0.4,1.3,0c0.4-0.2,0.5-0.5,1-0.6c0.1,0.2-0.1,0.3-0.1,0.3c0.2,0.2,0.4,0.1,0.6,0c0,0.1,0,0.2,0,0.3
								c0.2,0,0.1-0.3,0.3-0.2c0,0.1-0.1,0.3-0.2,0.4c0.2-0.1,0.4-0.2,0.6-0.3c0,0.2-0.1,0.2-0.2,0.3c0.2-0.1,0.6-0.1,0.7-0.4
								l-0.1-0.1c0.1,0,0,0.2,0,0.3c-0.2,0.2-0.3-0.1-0.3-0.2l0.1,0c-0.1-0.6-0.6,0-0.9,0l0.2-0.4l-0.3,0.3
								c-0.1-0.1-0.1-0.3,0.1-0.4c-0.2-0.2-0.2,0.1-0.4-0.1c0,0,0-0.1,0-0.1l-0.2,0.1c0-0.1,0-0.3,0.1-0.2c-0.4-0.3-0.6,0.3-0.7-0.1
								l0,0c-0.5,0.1-0.1,0.3-0.5,0.6l-0.2-0.8l-0.1,0.3c-0.1,0-0.2,0-0.1-0.2c-0.2,0.2,0,0.1-0.1,0.3c-0.2-0.3-0.7,0.1-0.7-0.4
								c-0.1,0.2,0.2,0.2,0,0.3c-0.1-0.5-0.3,0.1-0.5-0.2c0.1-0.3,0.3-0.1,0.1-0.4c-0.1,0.5-0.4-0.1-0.6,0c0,0.4-0.4,0.1-0.7,0.3
								c0-0.1-0.6-0.2-0.9-0.3l0-0.1c0,0.4-0.4,0.3-0.6,0.4c0-0.2,0-0.3,0.2-0.4l-0.2,0c0,0.1-0.1,0.2-0.2,0.2l0-0.3
								c-0.3,0-0.6,0.4-0.9,0.2c0,0.3,0.3,0.7,0,0.9c0-0.1-0.1-0.4,0-0.4c0,0-0.1,0.1-0.2,0.1l0.1-0.2c-0.2-0.1-0.1,0.2-0.2,0.2
								c0-0.2-0.1-0.1-0.1-0.3c0,0,0.1,0.1,0.2,0c-0.2,0-0.3-0.1-0.4-0.3c0,0.1,0,0.3-0.1,0.3c-0.3,0-0.1-0.2-0.3-0.3
								c-0.1,0.1-0.3,0-0.2,0.3c-0.1,0-0.1-0.1-0.2-0.2c-0.1,0.1-0.7,0.1-0.5,0.4l0,0l0,0l0,0l0,0c-0.4,0.4-1,0-1.5,0.1l0-0.1
								c-0.3,0.2-0.6,0.2-0.8,0.4c-0.1,0-0.2-0.1-0.2-0.3c-0.2,0.1-0.2,0.2-0.6,0.1c0.2-0.2-0.1-0.1,0.2-0.2c-0.3,0-0.4-0.2-0.6,0.1
								c0.1-0.3-0.3-0.3-0.4-0.2l0.2,0.1c-0.1,0.1-0.3,0.1-0.4,0.1l0-0.3c-0.7-0.3-0.9,0.9-1.5,0.3c-0.1,0.3,0.3,0.1,0.3,0.4
								c-0.3,0-0.7-0.4-0.7-0.4c-0.4-0.1-0.2,0.6-0.6,0.5c0.1,0.1,0.2,0.4,0,0.6c-0.3,0-0.4-0.4-0.3-0.5c0.1,0,0.1,0,0.1,0
								c0.1-0.1,0.2-0.1,0-0.2l0,0.1c-0.2-0.1-0.5,0-0.5-0.2c-0.2,0.2,0,0.2,0.1,0.2c-0.4-0.1-0.5,0.1-0.9,0.1
								c0.1,0,0.2,0.2,0.1,0.2c-0.5,0-0.2,0.3-0.5,0.4c-0.2-0.1,0-0.4-0.3-0.2c-0.2-0.1-0.1-0.3-0.1-0.4c-0.2,0.3-0.6,0-0.7-0.1
								l0.1-0.1c-0.1,0.1-0.1,0.1-0.2,0.1l0.1,0.2c-0.1,0-0.2,0-0.2-0.1c-0.1,0.2,0.1,0.4,0,0.6c-0.1-0.1-0.4,0.2-0.4-0.2
								c0.4,0.1-0.1-0.3,0.2-0.4c-0.1,0-0.1,0-0.2,0c0,0,0-0.1,0-0.1c-0.3-0.3-0.1,0.4-0.5,0.4c0-0.2-0.1-0.3-0.1-0.3
								c0.1,0,0.1,0.3-0.1,0.4c-0.2-0.2-0.2,0.1-0.4,0l0.1,0.1c-0.1,0.2-0.2,0.1-0.4,0.2c0-0.1,0.2-0.1,0.1-0.1
								c-0.2,0.3-0.3-0.4-0.6-0.3c-0.1-0.1,0.1-0.3,0-0.4c-0.3,0.1-0.2-0.3-0.5-0.3c0,0.3,0,0.2-0.3,0.3c0.2,0,0.4,0,0.5,0
								c-0.1,0.1-0.3,0.1-0.4,0.2c0.1,0.1,0.4,0,0.4,0.1c-0.2,0.1-0.2,0.1-0.2,0.3c-0.1-0.4-0.5,0-0.6-0.3l0.3-0.5
								c-0.2-0.4-0.7,0-1.1-0.4l0.1,0.2c-0.2,0.2-0.3-0.1-0.5-0.1c0.1-0.2,0-0.3,0-0.4c-0.1,0.1-0.4-0.2-0.6,0.2l-0.1-0.3
								c-0.4-0.3-0.7,0.3-1,0.2c0.2-0.2,0-0.4,0.4-0.4c-0.1,0-0.2-0.1-0.3,0c0-0.1-0.5,0.1-0.5-0.1c-0.1,0.1-0.2,0.3-0.3,0.2
								c0,0,0-0.1,0-0.1c0,0.1-0.3,0.1-0.2,0.3c-0.3-0.7-1.2-0.2-1.4-0.8c-0.3,0-0.7,0-1,0c0-0.1,0-0.1,0.1-0.1
								c-0.4-0.2-0.3,0.5-0.7,0.3c-0.2-0.3,0.2-0.2,0.1-0.3c0-0.6-0.5,0.1-0.8-0.3l0.1,0c-0.2-0.2-0.6,0.2-0.9,0.2c0,0,0-0.1,0-0.1
								c-0.2,0.3-0.7,0.5-1,0.6c0.1-0.3,0.1-0.2,0-0.4c-0.2,0.1,0.1,0.4-0.2,0.5c-0.1-0.1-0.4-0.2-0.4-0.5l0.3-0.1
								c-0.2-0.3-0.4,0.1-0.5,0l0-0.2c-0.4,0.2-0.4,0.5-0.8,0.6l0.1,0.1c-0.2,0.4-0.3-0.2-0.4,0.2l-0.2-0.4
								c-0.1,0.1-0.5,0.5-0.7,0.7c0.1-0.3,0.4-0.6,0.5-0.8c-0.2,0-0.6,0.2-0.6,0.4c0.1-0.1,0.1-0.2,0.2-0.1
								c-0.1,0.4-0.3,0.6-0.6,0.7c-0.2-0.7-0.9,0.2-1.3-0.3c-0.4,0.5-1.1,0.3-1.7,0.6c0.4,0.5-0.2,0.1,0.1,0.6
								c-0.1,0.1-0.2,0.1-0.2,0.1c-0.2-0.1-0.4-0.2-0.5-0.2c-0.1-0.1,0.1-0.2,0.1-0.3c-0.3,0-0.2-0.2-0.4-0.3c0.1,0.2,0,0.3-0.2,0.3
								c0.1,0.1,0.2,0.2,0.3,0.2c-0.4,0.4-0.4-0.4-0.8-0.1l0.1-0.2c-0.2,0.1-0.7,0-0.9,0.5c0-0.1,0-0.2,0-0.3
								c-0.4-0.1-1.2,0.3-1.5-0.2l0.1-0.1c-0.1,0-0.3,0.2-0.3,0c0-0.1,0.1-0.1,0.1-0.1c-0.1,0-0.4,0.1-0.5,0l0.2-0.1
								c-0.5-0.4-1,0-1.5-0.1c0.2-0.4-0.3-0.7-0.5-0.9l0-0.1c-0.7-0.3-1.3,0-2,0.1c-0.4-0.5-1.4-0.4-2.1-0.7c0.1,0.1,0,0.3-0.1,0.4
								c-0.2-0.1-0.4,0.3-0.4-0.1l0.1,0c-0.1-0.4-0.4-0.3-0.7-0.3l0,0.5c-0.7-0.8-1.7,0.4-2.1-0.3c-0.1,0.1-0.3,0.2-0.5,0.3l0-0.3
								c-0.4,0-0.6,0-1.2,0.1l0.1-0.2c-0.3,0-0.3,0.9-0.5,0.9l-0.1-0.4c-0.5,0.1-1.1-0.2-1.5,0.2c0-0.1,0-0.2,0.1-0.2
								c-0.2,0-0.9-0.2-0.8,0.4c0-0.4-0.5,0-0.8,0.2l0-0.3c-0.2,0.4-0.2,0.5-0.5,0.6c-0.1,0-0.1-0.2,0-0.2c-0.3-0.1-0.2,0.3-0.5,0.2
								l0.1-0.2c-0.3,0-0.2,0.1-0.4,0.3c-0.2,0.1-0.5,0-0.5-0.3c0,0.2-0.2,0.4-0.3,0.3c0-0.1,0-0.2,0.1-0.2
								c-0.4-0.2-0.6,0.3-0.9,0.1c0-0.1,0-0.1-0.1-0.2c0.3,0,0.6,0,0.6,0c0-0.3-0.3-0.3-0.1-0.7c-0.2,0.2-0.6,0.6-0.8,0.5
								c0,0,0,0,0-0.1l0,0c-0.1,0-0.1,0-0.2,0c-0.1,0-0.1-0.1-0.2-0.1c0-0.2-0.3-0.1-0.4-0.1c0,0.3-0.2,0.2,0,0.5c0,0,0,0,0.1,0
								c0,0,0,0,0.1,0l0,0c0.1,0,0.2,0,0.3,0c-0.1,0.1-0.2,0.3-0.4,0.1c-0.1,0.2-0.2,0.4-0.2,0.5c-0.2-0.4-0.5-0.6-0.6-0.9
								c-0.4,0.1-1,0.1-1.3,0.6c-0.1,0.1-0.1-0.2-0.2-0.2c0.1,0,0.2,0,0.2-0.1c-0.2,0.1-0.7,0-0.8,0.4c-0.3-0.2,0.2-0.3-0.2-0.3
								l0.1-0.1c-0.7-0.7-1.4,0.8-2.2-0.1c0.1,0.1,0.1,0.1,0.1,0.1c-1-0.5-2.2-0.1-3-0.8c-0.3-0.2-0.3,0-0.6,0.2l0-0.3l-0.4,0.3
								c-0.5,0.1-0.5-0.9-1.2-0.6l0,0.2c-0.2-0.1-0.6-0.1-0.5-0.3c0,0-0.1,0.2-0.2,0.1l0-0.2l-0.5,0.1c-0.3-0.2,0.3-0.6-0.2-0.8
								c-0.2,0-0.7,0.2-0.7,0.4c0.1,0,0.2,0.2,0.1,0.3l-0.2,0c-0.2,0.4-0.5,0.8-0.2,1.3l0.4-0.2l0,0.2l-0.3-0.1
								c0.1,0.3,0.2,0.1,0.4,0c0,0.1,0,0.2,0,0.3l0.5-0.3c0,0.2-0.3,0.3-0.1,0.5c0.2-0.1,0-0.4,0.3-0.5c0.1,0.2,0,0.4,0.2,0.3
								c0,0.1-0.1,0.2-0.2,0.2c0.2-0.1,0.4,0.1,0.6-0.1c0.1,0.3,0.5,0.1,0.4,0.5c0.1-0.1,0.4-0.2,0.5-0.2c-0.4,0.4,0.5,0.2,0.3,0.7
								c0.3-0.4,0.8,0,1.2-0.2c0,0-0.1,0.1-0.1,0.1c0.2,0.1,0.2,0.2,0.3,0.4c0.1-0.4,0.4-0.4,0.7-0.6c0.2,0.4-0.2,0.4-0.2,0.8
								c0.1-0.3,0.5-0.2,0.5-0.5c0.1,0.3,0.1,0.1,0.2,0.5c0.1-0.5,0.2,0,0.4-0.3c0.2,0.3,0,0.5,0.3,0.4
								C114.3,597.6,114,597.8,114,597.8z M121.2,597.6L121.2,597.6c-0.1,0-0.1,0-0.1,0C121.1,597.6,121.2,597.6,121.2,597.6z
								 M121.8,597.6c-0.1,0-0.2,0-0.3,0c0-0.1,0-0.2,0.1-0.2C121.6,597.4,121.7,597.5,121.8,597.6z M120.6,595.6
								c0.1,0,0.1,0,0.1,0.1c0,0-0.1,0-0.2,0l0,0C120.6,595.7,120.6,595.6,120.6,595.6z"/>
							<path class="st60" d="M120.4,596C120.4,596,120.4,596,120.4,596C120.4,596,120.4,596,120.4,596L120.4,596L120.4,596z"/>
							<path class="st60" d="M172.4,595.6L172.4,595.6C172.4,595.6,172.4,595.7,172.4,595.6C172.4,595.7,172.4,595.7,172.4,595.6z"
								/>
							<polygon class="st60" points="130,597.3 130,597.3 130,597.3 							"/>
							<path class="st60" d="M175.7,596.4C175.7,596.4,175.8,596.4,175.7,596.4C175.8,596.4,175.8,596.4,175.7,596.4z"/>
							<path class="st60" d="M177.1,596.4l0.2,0.1C177.2,596.4,177.2,596.4,177.1,596.4z"/>
							<path class="st60" d="M178.2,596.5c0,0,0-0.1,0-0.1l0,0L178.2,596.5z"/>
							<path class="st60" d="M161.1,599.1C161.1,599.1,161.1,599.1,161.1,599.1C160.9,599.1,161,599.1,161.1,599.1z"/>
							<path class="st60" d="M166.4,597.6c0,0.1-0.1,0.1-0.1,0.2C166.3,597.8,166.4,597.8,166.4,597.6z"/>
							<polygon class="st60" points="155.6,597.3 155.6,597.3 155.5,597.3 							"/>
							<path class="st60" d="M166,597.8c0.1,0,0.2,0,0.2-0.1C166.2,597.8,166.1,597.8,166,597.8z"/>
							<path class="st60" d="M182.8,596.9L182.8,596.9C182.8,596.9,182.8,596.9,182.8,596.9L182.8,596.9z"/>
							<path class="st60" d="M182.8,596.9L182.8,596.9C182.9,596.9,182.8,596.9,182.8,596.9z"/>
							<path class="st60" d="M183,596.8l-0.1,0.1C182.9,596.9,183,596.9,183,596.8z"/>
							<path class="st60" d="M181.4,596.7l0,0.1C181.4,596.7,181.4,596.7,181.4,596.7z"/>
							<path class="st60" d="M180.9,596.7c0.1,0,0.2,0.2,0.4,0.2l0-0.1C181.3,596.9,181.1,596.5,180.9,596.7z"/>
							<path class="st60" d="M179.2,595.3l0.4,0.1c-0.1-0.1-0.1-0.3,0-0.3C179.2,594.8,179.7,595.4,179.2,595.3z"/>
							<path class="st60" d="M178.1,595.1c0.2-0.1,0-0.2,0-0.2C178,595,177.9,595,178.1,595.1z"/>
							<path class="st60" d="M169.8,595.8l0-0.3C169.7,595.6,169.8,595.6,169.8,595.8z"/>
							<polygon class="st60" points="168.6,597.4 168.7,597.5 168.7,597.2 							"/>
							<polygon class="st60" points="167.3,595.8 167.3,595.7 167.1,595.9 							"/>
							<path class="st60" d="M154.6,594.5l0,0.3C154.7,594.8,154.8,594.5,154.6,594.5z"/>
							<path class="st60" d="M148.4,595.1c-0.1-0.1-0.3-0.2-0.4,0C148.1,595.1,148.3,595.2,148.4,595.1z"/>
							<polygon class="st60" points="131.4,594.7 131.6,594.6 131.3,594.7 							"/>
						</g>
					</g>
				</g>
			</g>
		</g>
		<linearGradient id="SVGID_16_" gradientUnits="userSpaceOnUse" x1="94" y1="48.05" x2="99.9" y2="48.05">
			<stop  offset="0" style="stop-color:#999999"/>
			<stop  offset="8.728403e-02" style="stop-color:#8A8A8A"/>
			<stop  offset="0.5272" style="stop-color:#404040"/>
			<stop  offset="0.8424" style="stop-color:#121212"/>
			<stop  offset="1" style="stop-color:#000000"/>
		</linearGradient>
		<path class="st61" d="M99.9,29.4v37.3c0,0.8-0.6,1.4-1.4,1.4h-3.1c-0.8,0-1.4-0.6-1.4-1.4V29.4c0-0.8,0.6-1.4,1.4-1.4h3.1
			C99.3,28,99.9,28.6,99.9,29.4z"/>
		<linearGradient id="SVGID_17_" gradientUnits="userSpaceOnUse" x1="148" y1="48.05" x2="153.9" y2="48.05">
			<stop  offset="0" style="stop-color:#999999"/>
			<stop  offset="8.728403e-02" style="stop-color:#8A8A8A"/>
			<stop  offset="0.5272" style="stop-color:#404040"/>
			<stop  offset="0.8424" style="stop-color:#121212"/>
			<stop  offset="1" style="stop-color:#000000"/>
		</linearGradient>
		<path class="st62" d="M153.9,29.4v37.3c0,0.8-0.6,1.4-1.4,1.4h-3.1c-0.8,0-1.4-0.6-1.4-1.4V29.4c0-0.8,0.6-1.4,1.4-1.4h3.1
			C153.3,28,153.9,28.6,153.9,29.4z"/>
		<linearGradient id="SVGID_18_" gradientUnits="userSpaceOnUse" x1="390" y1="48.05" x2="395.9" y2="48.05">
			<stop  offset="0" style="stop-color:#999999"/>
			<stop  offset="8.728403e-02" style="stop-color:#8A8A8A"/>
			<stop  offset="0.5272" style="stop-color:#404040"/>
			<stop  offset="0.8424" style="stop-color:#121212"/>
			<stop  offset="1" style="stop-color:#000000"/>
		</linearGradient>
		<path class="st63" d="M395.9,29.4v37.3c0,0.8-0.6,1.4-1.4,1.4h-3.1c-0.8,0-1.4-0.6-1.4-1.4V29.4c0-0.8,0.6-1.4,1.4-1.4h3.1
			C395.3,28,395.9,28.6,395.9,29.4z"/>
		<linearGradient id="SVGID_19_" gradientUnits="userSpaceOnUse" x1="444" y1="48.05" x2="449.9" y2="48.05">
			<stop  offset="0" style="stop-color:#999999"/>
			<stop  offset="8.728403e-02" style="stop-color:#8A8A8A"/>
			<stop  offset="0.5272" style="stop-color:#404040"/>
			<stop  offset="0.8424" style="stop-color:#121212"/>
			<stop  offset="1" style="stop-color:#000000"/>
		</linearGradient>
		<path class="st64" d="M449.9,29.4v37.3c0,0.8-0.6,1.4-1.4,1.4h-3.1c-0.8,0-1.4-0.6-1.4-1.4V29.4c0-0.8,0.6-1.4,1.4-1.4h3.1
			C449.3,28,449.9,28.6,449.9,29.4z"/>
		<rect x="3.5" y="1.5" class="st65" width="1280" height="713"/>
	</g>
</g>
</svg>
